<?xml version="1.0" encoding="UTF-8"?><svg xmlns="http://www.w3.org/2000/svg" xmlns:xlink="http://www.w3.org/1999/xlink" height="345.9" preserveAspectRatio="xMidYMid meet" version="1.0" viewBox="35.2 25.7 274.6 345.9" width="274.6" zoomAndPan="magnify"><g id="change1_1"><path d="M164.94,245.59H165l-.07,0Z" fill="#2c3d36"/></g><g id="change1_2"><path d="M309.59,96.13c-.33-.34-.73-.22-1.12-.18-2.73.25-5.46.48-8.18.76a82.48,82.48,0,0,0-16.81,3.63,63.41,63.41,0,0,0-18,9.26c-5.65,4.1-11.25,8.27-16.88,12.41a13.15,13.15,0,0,1-1.19.74,10.35,10.35,0,0,1,.64-.94c.72-.89,1.49-1.75,2.21-2.64q5.93-7.41,11.83-14.82c1.07-1.35,2.06-2.76,3.1-4.13a9.1,9.1,0,0,1,1-1.08c1-1,2.06-1.82,3-2.84,2-2.22,3.95-4.53,5.95-6.77a91,91,0,0,0,10.32-14.59,76.72,76.72,0,0,0,7.85-18.49c.58-2.05,1.19-4.08,1.76-6.12,1.09-3.91,2.27-7.81,3.22-11.76.9-3.77,1.54-7.61,2.29-11.43.08-.42.23-.87-.21-1.21a.77.77,0,0,0-1,.21,6.73,6.73,0,0,0-.59.71c-1.33,1.71-2.64,3.43-4,5.13a89.22,89.22,0,0,0-6.43,8.92A179,179,0,0,0,277.27,62,59.2,59.2,0,0,0,275,68.2q-1.71,5.58-3.17,11.22a117.51,117.51,0,0,1-5,15.77,30.39,30.39,0,0,1-4.28,7.59c-4.58,5.63-9.05,11.33-13.66,16.92-2,2.43-4.24,4.67-6.38,7a11,11,0,0,1,.56-1.08c1.64-2.57,3.31-5.12,4.93-7.71a28.73,28.73,0,0,0,3.55-8.1,33.49,33.49,0,0,1,1.27-3.9,46.39,46.39,0,0,0,2.6-9.57,43.94,43.94,0,0,0,.82-10.67c-.06-.88-.15-1.76-.18-2.64a58,58,0,0,0-1.57-11.13,135.3,135.3,0,0,1-2.86-13.34,59.63,59.63,0,0,1-1-8.54,2.05,2.05,0,0,0-.11-.78,4.18,4.18,0,0,0-.56-.78,4.84,4.84,0,0,0-.72.71,7.53,7.53,0,0,0-.42,1q-1.89,4.38-3.79,8.76c-.58,1.33-1.26,2.63-1.8,4a84.23,84.23,0,0,0-5.49,20,49.79,49.79,0,0,0-.48,9.91A134.65,134.65,0,0,0,239,107.37a53.61,53.61,0,0,1,.62,15.17,39.71,39.71,0,0,1-.76,4,3.72,3.72,0,0,1-1,2,3,3,0,0,0-.72,1.1,14.36,14.36,0,0,1-3,4.46c-.9,1-1.85,1.89-2.74,2.87a27.89,27.89,0,0,1-4.95,4.94,4.89,4.89,0,0,0-.58.54q-2.5,2.26-5,4.51a3.65,3.65,0,0,1-.31.24c-1.56,1.3-3.16,2.55-4.67,3.9a34.15,34.15,0,0,0-4.47,4.11,2.3,2.3,0,0,1-.41.35l-7.25,6c-.41.34-.84.66-1.27,1-2.43,1.76-4.86,3.53-7.31,5.26-1.52,1.06-3.09,2.05-4.63,3.08l-.26.17.17-.26c1-1.09,2.05-2.19,3.11-3.25a105,105,0,0,0,7.66-8.26,34.38,34.38,0,0,0,6.57-13.32c.45-1.79.95-3.58,1.46-5.36a47,47,0,0,0,1.77-8.69q.35-4,.61-8.06a29.43,29.43,0,0,0-1.46-11.1,114.67,114.67,0,0,1-4.47-16.88c-.34-2-.81-4.09-.15-6.16,0-.1-.07-.24-.12-.4-.57-.13-.81.27-1,.64-.91,1.56-1.91,3.09-2.68,4.72-1.73,3.62-3.34,7.31-5,11A38.88,38.88,0,0,0,193,122c0,4.15,0,8.31.13,12.46.18,5.7.29,11.4.16,17.1a23.49,23.49,0,0,1-.16,2.51A82.2,82.2,0,0,1,191,164.74a18.46,18.46,0,0,1-2.57,5.64,25.29,25.29,0,0,1-3.73,4.28,108.71,108.71,0,0,1-9.34,8.22c-3.58,2.74-7.19,5.44-10.8,8.14-1.31,1-2.64,1.92-4,2.87a8.45,8.45,0,0,1-.89.49,3.51,3.51,0,0,1,.34-.67,86.46,86.46,0,0,0,9.23-16.37c.19-.44.36-.9.51-1.36a118.81,118.81,0,0,0,3.35-11.58,46.08,46.08,0,0,0,1.24-8.9,30.41,30.41,0,0,1,.28-3.7,52.39,52.39,0,0,0,.46-10.32c-.13-2.2-.2-4.41-.38-6.61a38.51,38.51,0,0,0-1.61-7.51c-.63-2.16-1.42-4.28-1.92-6.47-1.41-6.17-3.8-12.06-5.09-18.25a4.72,4.72,0,0,0-.45-1l-.91.22a5,5,0,0,0-.1.85,8.8,8.8,0,0,1-.46,3.14c-.41,1.35-.82,2.7-1.28,4a121.27,121.27,0,0,0-5,18.81,57.92,57.92,0,0,0-1.1,12.52,121.46,121.46,0,0,0,1.34,13.05c.87,5.72,2,11.41,2.45,17.18a45,45,0,0,1,.24,5.56c-.1,2.42-.37,4.84-.69,7.25A44,44,0,0,1,156.55,196a3.2,3.2,0,0,1-1.25,1.5c-2.71,1.74-5.42,3.49-8.08,5.31a35.81,35.81,0,0,0-3.43,2.71c-1.76,1.54-3.47,3.14-5.19,4.74-2.62,2.44-5.22,4.89-7.83,7.34l-4,3.76c.39-.6.74-1.22,1.18-1.78,2.49-3.11,4.92-6.26,7.14-9.56a34.26,34.26,0,0,0,3.77-6.84c.94-2.43,1.83-4.88,2.64-7.36,1.29-3.94,2.64-7.87,2.91-12.08a38.57,38.57,0,0,0-.6-11.6c-.9-3.69-1.89-7.36-2.88-11-.92-3.46-1.9-6.9-2.84-10.35a22.54,22.54,0,0,1-.82-5.23c0-.47,0-1-.47-1.25-.63,0-.73.5-.87.91-1.2,3.37-2.46,6.73-3.58,10.12a56.18,56.18,0,0,0-3,18.62c0,2.39.16,4.78.38,7.15a112.56,112.56,0,0,1,.06,16.83c-.13,2.16-.22,4.32-.44,6.48a41.5,41.5,0,0,1-.82,5.09c-.47,2-1.18,4-1.68,6a30.62,30.62,0,0,1-3.6,8.37,12.94,12.94,0,0,1-2.83,3.3,45.33,45.33,0,0,0-3.59,3.34,104.31,104.31,0,0,0-8.35,9.94c-2.47,3.25-5.29,6.17-8,9.21-3.59,4-7.24,8-10.13,12.59a15.8,15.8,0,0,1-1.25,1.61,7.24,7.24,0,0,1,.31-.93c1-2,2-3.91,3.11-5.85a118.13,118.13,0,0,0,5.56-11.29,56.21,56.21,0,0,0,4.22-19.59,45.63,45.63,0,0,0-1.41-11.28A69.37,69.37,0,0,0,97,203.5q-5-12-9.43-24.2c-.44-1.21-.91-2.4-1.4-3.58-.22-.53-.44-1.09-1.13-1.19a1.55,1.55,0,0,0-1.22,1.09,11.53,11.53,0,0,0-.6,1.89c-.6,2.58-1.21,5.16-1.72,7.76a99.77,99.77,0,0,0-1.8,10.85c-.23,2.6-.5,5.19-.66,7.8a38.78,38.78,0,0,0,.88,11.72c1.62,6.43,3.29,12.84,5.06,19.23a67.25,67.25,0,0,1,2.73,20.28c-.1,3.13-.37,6.26-.56,9.39a8.34,8.34,0,0,1-1.83,4.75c-.54.69-1,1.43-1.57,2.14-4.63,6.19-9,12.61-13.21,19.07-2.31,3.5-4.3,7.21-6.5,10.79s-4.08,7-5.91,10.66c-2.52,5-5.21,9.94-7.37,15.14-.46,1.1-.94,2.19-1.5,3.24-2.26,4.27-4,8.79-5.9,13.19-.29.64-.49,1.32-.72,2-1.4,4-2.86,8-4.18,12-1.09,3.31-2,6.68-3,10,0,.13,0,.26-.09.39a4.66,4.66,0,0,0,.44,3,1.09,1.09,0,0,0,1,.72,1.35,1.35,0,0,0,1-.85c.15-.32.29-.65.41-1,.74-2.22,1.45-4.45,2.23-6.66,1.16-3.29,2.38-6.56,3.54-9.85,1.27-3.63,2.6-7.24,3.73-10.91,1-3.38,2.1-6.75,3.41-10a53.83,53.83,0,0,1,4.27-8.52c2.45-3.94,4.89-7.89,7.42-11.78,1.46-2.26,3-4.46,4.65-6.61a218.77,218.77,0,0,1,15.09-17.79,80,80,0,0,1,10-9.51,7.45,7.45,0,0,0,.6-.52,24.8,24.8,0,0,1,3.76-2.93,11.22,11.22,0,0,0,1.77-1.38c2.53-2.42,5.46-4.36,8.13-6.6a8.17,8.17,0,0,1,1.11-.73,42,42,0,0,0,9.13-6.77,4.18,4.18,0,0,1,.5-.43,41.62,41.62,0,0,0,5.91-5.26,11.29,11.29,0,0,1,1.51.18,10.64,10.64,0,0,1,4,2,32.89,32.89,0,0,1,4.83,4.53c1.94,2.18,3.87,4.37,5.75,6.6a90.43,90.43,0,0,0,19.29,17.29A108.88,108.88,0,0,0,183.26,296c5.46,1.91,11,3.73,16.44,5.58,1.13.38,2.27.73,3.41,1.07.5.14,1,.2,1.54.3l.52-.63a3.66,3.66,0,0,0-1-2.15c-1.41-1.76-2.82-3.52-4.31-5.21q-8.1-9.21-16.26-18.37a84.53,84.53,0,0,0-9.58-9.34A61,61,0,0,0,156.54,257a85,85,0,0,0-20.43-4.91,40.46,40.46,0,0,0-9.65,0c-.22,0-.44,0-.91,0l10.7-6.27c.41.08.84.12,1.26.23,1.24.32,2.49.63,3.71,1a17,17,0,0,1,2.61,1c4,2,8,4.06,12.07,6.1,1.57.79,3.13,1.64,4.74,2.36a99.41,99.41,0,0,0,23,6.64,102.77,102.77,0,0,0,16,1.27c2.16,0,4.33-.14,6.49-.14,4.12,0,8.19-.61,12.28-1a38.64,38.64,0,0,1,8.6,0l1.84.22a.69.69,0,0,0,.88-.56,6.2,6.2,0,0,0-.69-.64c-3.15-2.21-6.29-4.42-9.46-6.6a112.89,112.89,0,0,0-24.53-13,50.72,50.72,0,0,0-10.5-2.74,86.05,86.05,0,0,0-13.62-.7c-3.49.06-7,.23-10.46.38a82.1,82.1,0,0,0-13.52,1.8l-4.23.9c1.46-.79,2.88-1.68,4.4-2.36,4.34-2,8.66-4,13.11-5.72,4.07-1.59,8.09-3.31,12.12-5,1.91-.81,3.83-1.62,5.64-2.6a72.24,72.24,0,0,1,7-3.43,4.1,4.1,0,0,1,2.71-.28c2.22.59,4.44,1.17,6.65,1.77.89.24,1.77.56,2.67.78,3.55.89,7.11,1.75,10.67,2.64a65.2,65.2,0,0,0,12,1.86c2,.11,4.06.31,6.09.35,3.22.08,6.45.15,9.67,0s6.53-.37,9.78-.71c3-.31,6.06-.67,9-1.26,4.16-.81,8.26-1.91,12.4-2.8a47,47,0,0,1,11.14-1.44c.18,0,.37-.16.55-.24,0-.72-.49-.82-.95-1-2.37-.84-4.76-1.64-7.11-2.55a122.26,122.26,0,0,0-25.19-7.12,82.67,82.67,0,0,0-11.85-1.14c-3,0-5.92.06-8.88.21-2.29.12-4.57.36-6.85.65a99.59,99.59,0,0,0-12.45,2.56c-.44.12-.91.19-1.36.27.38-.25.76-.53,1.16-.75,4.9-2.65,9.81-5.27,14.69-7.93a43.22,43.22,0,0,0,4-2.39c2.86-2,5.67-4.06,8.51-6.09a3.42,3.42,0,0,1,.91-.51,14.18,14.18,0,0,1,5.88-.74c2.63.29,5.25.67,7.85,1.16a87.47,87.47,0,0,0,12.05,1.75c2.61.13,5.2.09,7.81,0a89.52,89.52,0,0,0,35.33-8.88,47.29,47.29,0,0,1,4.67-1.86,15,15,0,0,1,1.93-.43c.11,0,.19-.17.33-.29l-.16-.61-2.78-.43c-1.74-.29-3.47-.63-5.22-.89a116.7,116.7,0,0,0-13.33-1,125.53,125.53,0,0,0-36.1,3.82,138,138,0,0,0-14,5c-.39.15-.8.28-1.2.41a5.78,5.78,0,0,1,.64-.58,52.58,52.58,0,0,1,8.89-5.25,57.15,57.15,0,0,0,7.07-3.9,32.89,32.89,0,0,1,2.84-1.71c3.43-1.74,6.7-3.75,10-5.75a59.18,59.18,0,0,0,6.42-4.45c2.59-2.07,5.2-4.11,7.71-6.28,4-3.46,8.09-6.86,11.8-10.66,2.6-2.65,5.21-5.29,8-7.77a9.83,9.83,0,0,0,1.05-1.18c.07-.08,0-.25.06-.44l-.5-.32-.56.18c-4.73,1.7-9.45,3.46-14.21,5.09a91.92,91.92,0,0,0-17.92,8.51c-7.4,4.51-13.62,10.37-19.34,16.81-.34.39-.67.8-1,1.19-.41,0-.76,0-1.11,0-3.66-.17-7.33-.34-11-.53-1.63-.08-3.26-.22-4.89-.3-2.65-.13-5.3-.34-7.94-.32a82.05,82.05,0,0,0-9.52.59A128.22,128.22,0,0,0,196,181.26q-11.67,3-23,7.13c-2.07.75-4.13,1.52-6.19,2.28,1.25-1,2.48-2.11,3.78-3.08q16-12,32-24a21,21,0,0,0,2.17-1.52c1.42-1.39,3-2.58,4.55-3.83a8.72,8.72,0,0,1,5.37-2,35.67,35.67,0,0,0,4.62-.37,25.8,25.8,0,0,1,4.47-.4,161.09,161.09,0,0,0,22-1.15c4-.49,8.06-1.08,12.05-1.82a84.6,84.6,0,0,0,15.05-4.17c10.72-4.14,20.77-9.59,30.68-15.34a5.86,5.86,0,0,0,.55-.44l-.19-.76-1,0c-1-.05-2-.05-3-.18-5-.63-10.1-1.12-15.18-1.31a116.23,116.23,0,0,0-20.76.93,58.44,58.44,0,0,0-16.87,4.88c-2.87,1.35-5.76,2.69-8.63,4.07-2.42,1.17-4.83,2.39-7.24,3.6-3.43,1.73-6.85,3.48-10.28,5.22l-.44.19a2.58,2.58,0,0,1,.68-.81c5.31-4.67,10.64-9.31,15.55-14.42a6.24,6.24,0,0,1,2.27-1.56c1.23-.49,2.43-1,3.67-1.51,1.91-.69,3.85-1.31,5.77-2,7.74-2.74,15.35-5.87,23.12-8.55a79.28,79.28,0,0,0,17.33-8.22c3.56-2.31,7.08-4.67,10.59-7,1.17-.8,2.27-1.7,3.37-2.58,2.21-1.75,4-4,6.51-5.42A.6.6,0,0,0,309.59,96.13ZM290.77,61.4a84.88,84.88,0,0,1-9.23,18A88.16,88.16,0,0,1,274.3,89c-.52.58-1.1,1.1-1.65,1.64A4.54,4.54,0,0,1,273,90c1.67-2.5,3.28-5,5-7.47a81.25,81.25,0,0,0,6.15-9.26A163.38,163.38,0,0,0,291.58,58a9.15,9.15,0,0,1,.65-1.19C291.75,58.36,291.33,59.91,290.77,61.4ZM299,29.94a1.1,1.1,0,0,1,.42-.65c-.22,1.35-.41,2.7-.66,4a125.78,125.78,0,0,1-4.59,17.26c-.26.79-.56,1.58-.9,2.35-3,6.74-6,13.45-9.54,20a60.76,60.76,0,0,1-4.27,6.7A5.77,5.77,0,0,1,279,80a11.26,11.26,0,0,1,.46-1.31c1.61-3.39,3.24-6.77,4.85-10.16.67-1.4,1.27-2.82,1.95-4.21,1.32-2.74,2.62-5.5,4-8.19a55.66,55.66,0,0,0,4.58-11.69C296.21,39.61,297.61,34.78,299,29.94Zm-2.57,2.7c.19-.35.4-.69.61-1a3.69,3.69,0,0,1,.43-.5,8.57,8.57,0,0,1-.25,1c-2.33,5.53-4.31,11.2-6.78,16.68-2.72,6-5.26,12.15-7.86,18.24a10.9,10.9,0,0,0-.4,1.38,10.5,10.5,0,0,0,.65-1.12c3.13-7.06,6.27-14.1,9.33-21.18,1.39-3.2,2.59-6.47,3.88-9.71.22-.55.49-1.08.73-1.62a6.26,6.26,0,0,1-.1,1c-1.14,4.18-2.23,8.37-3.46,12.51A36.55,36.55,0,0,1,290,55.54a79.72,79.72,0,0,0-4.6,9.54c-.32.82-.69,1.62-1.07,2.42-1.84,3.92-3.74,7.81-5.53,11.75a55.86,55.86,0,0,1-6.13,9.58,1.89,1.89,0,0,1-.3.25c-.08.16-.16.33-.23.49,0-.16,0-.33,0-.49h-.25l.25-.51a52.6,52.6,0,0,1,3-8.47c3.73-8.1,7.37-16.24,10.66-24.53.93-2.34,1.94-4.64,2.88-7A157.42,157.42,0,0,1,296.41,32.64Zm-24.79,50c1.34-5.31,2.54-10.66,4.68-15.71,1.93-4.55,3.88-9.09,6.08-13.51A98.2,98.2,0,0,1,291,39a12.77,12.77,0,0,1,.92-1c-.15.34-.29.69-.47,1-2,3.59-4,7.16-6,10.78-.91,1.71-1.69,3.5-2.48,5.28-3.48,7.83-6.81,15.73-9.76,23.78-.41,1.12-.79,2.25-1.21,3.37-.13.35-.32.68-.48,1A3,3,0,0,1,271.62,82.59Zm-1.9,7c2-5.42,4-10.85,6.1-16.25,2.68-7,5.84-13.84,8.84-20.72a10.59,10.59,0,0,1,.46-1q3.84-6.88,7.68-13.77a7.54,7.54,0,0,1,.74-1,9,9,0,0,1-.42,1,106.52,106.52,0,0,0-5,10.54q-3.6,8.77-7.22,17.52c-.19.45-.37.9-.57,1.34-1.89,4.19-3.81,8.36-5.67,12.57a41.59,41.59,0,0,0-1.8,4.69,24.75,24.75,0,0,1-3.37,7.3A19.06,19.06,0,0,1,268,94C268.58,92.52,269.16,91.05,269.72,89.58ZM204.3,91.82s.08,0,.19,0a2.49,2.49,0,0,1,.12.47,40.36,40.36,0,0,0,1.71,9.88c1,3.54,2.12,7,3.17,10.52a26.44,26.44,0,0,1,1.31,7.68c0,2.69,0,5.39-.06,8.08a46.14,46.14,0,0,1-1.91,10.93c-.66,2.34-1.35,4.67-2,7a32.2,32.2,0,0,1-5.54,11.07,79.19,79.19,0,0,1-7.91,8.77c.24-.38.45-.77.71-1.12,2.19-3,4.39-6,6.56-9a15.59,15.59,0,0,0,1.15-1.93,64.93,64.93,0,0,0,5.84-15,73.41,73.41,0,0,0,2-9.84,40.36,40.36,0,0,0,0-8.44,1.35,1.35,0,0,0-.22-.43c0,1.62.06,3.24,0,4.86a45.79,45.79,0,0,1-1.87,12q-.69,2.55-1.45,5.1a62.61,62.61,0,0,1-5.4,12.5,14.91,14.91,0,0,1-.95,1.44q-2.3,3.17-4.62,6.31a9,9,0,0,1-.85.9c.8-1.88,1.53-3.8,2.41-5.65,1.71-3.59,3.51-7.13,5.26-10.7a49.05,49.05,0,0,0,3.2-9.8,51.43,51.43,0,0,0,1.5-8.07,85,85,0,0,0,.36-11.51,13,13,0,0,0-.34-2.22c-.76-3.18-1.5-6.36-2.36-9.51a35.82,35.82,0,0,1-1.29-7.55c0-.44-.09-.88-.14-1.32A8.21,8.21,0,0,1,204.3,91.82Zm-6.8,14.46c1.15-2.53,2.28-5.07,3.43-7.61a2.94,2.94,0,0,1,.32-.49c-.41,1.6-.83,3.2-1.23,4.8s-.91,3.41-1.26,5.14a28,28,0,0,0-.41,3.54c-.18,2.65-.32,5.29-.47,7.93,0,.53,0,1.06-.07,1.59-.15,2.16-.3,4.31-.46,6.47-.1,1.37-.23,2.73-.32,4.09-.29,4.72-.52,9.44-.86,14.15a60.81,60.81,0,0,1-1.67,9.92.93.93,0,0,1-.33.52c.13-1.49.26-3,.37-4.47.06-.79.13-1.59.13-2.38,0-3.76,0-7.51.05-11.27,0-.88.12-1.76.11-2.64,0-1.24-.09-2.47-.13-3.71,0-.57,0-1.15,0-1.72.16-2.86.32-5.72.54-8.58.12-1.59.38-3.16.57-4.74.25-2.14.51-4.29.71-6.44A12.64,12.64,0,0,1,197.5,106.28Zm-3.31,14.38a33.08,33.08,0,0,1,1.31-8.89c.08-.25.17-.49.26-.74l.25,0c-.13,1.45-.2,2.9-.42,4.33a91.51,91.51,0,0,0-1,11.21c-.06,2-.2,4-.4,5.95v-1.15C194.19,127.81,194.12,124.23,194.19,120.66Zm-1.47,43.11c.95-2.56,1.94-5.1,2.87-7.66a11.73,11.73,0,0,0,.38-1.78l-.79,1.52c.21-1.19.39-2.38.62-3.57A62.86,62.86,0,0,0,196.88,142c.11-3.57.42-7.13.64-10.7.22-3.38.44-6.77.64-10.16.19-3.22.33-6.43.55-9.65a26.59,26.59,0,0,1,1-6c.09-.32.21-.63.38-1.13-.15,3.33-.27,6.45-.44,9.57a82.52,82.52,0,0,0,.41,10.31,53.43,53.43,0,0,1,0,7.8c-.14,1.76-.11,3.53-.15,5.29a4.44,4.44,0,0,0,.25-1c.1-2.87.17-5.74.26-8.61a82.21,82.21,0,0,0-.35-8.87,32.79,32.79,0,0,1,0-3.71c.1-2.69.29-5.38.39-8.07a45.74,45.74,0,0,1,1.27-8,5.47,5.47,0,0,1,.62-1.73c.14.91.33,1.81.4,2.73a26.78,26.78,0,0,0,1.28,6.21,91.57,91.57,0,0,1,2.64,10.81,8.34,8.34,0,0,1,.15,1.32,70.81,70.81,0,0,1-1.1,14.9c-.57,2.9-1.31,5.78-2.09,8.63a58.23,58.23,0,0,1-4.43,10.34,1.44,1.44,0,0,1-.3.36c.14-.63.25-1.26.45-1.87a118.15,118.15,0,0,0,3.45-15,36.65,36.65,0,0,0,.63-7.9c-.06-1.81,0-3.62-.05-5.43a1.75,1.75,0,0,0-.21-.9c0,.32-.06.65,0,1,0,1.59,0,3.18.06,4.76a46.5,46.5,0,0,1-1.05,10.12c-.75,3.63-1.5,7.25-2.5,10.82a82,82,0,0,1-5.86,14.6c-.37.74-.67,1.52-1,2.29h0l-.27.53-.5.23C192.24,165.24,192.45,164.49,192.72,163.77ZM36.77,370.1h-.16l-.17-.16.37-.31.13.09Zm.06-1.47a3.4,3.4,0,0,1,.77-2.29A5.24,5.24,0,0,1,36.83,368.63Zm7-24c0-.1.14-.18.27-.34a1.71,1.71,0,0,1,0,.46,21.75,21.75,0,0,1-1.67,4.41C42.87,347.69,43.33,346.18,43.8,344.67Zm1.83.15c-.82,2.24-1.58,4.49-2.43,6.71-1.11,2.88-2.27,5.74-3.41,8.61a3.4,3.4,0,0,1-.31.5c.13-.49.22-1,.39-1.46q3.12-8.65,6.27-17.28a6.61,6.61,0,0,1,.6-1.26A18.29,18.29,0,0,1,45.63,344.82Zm88-87v-.27c-.09-.18-.18-.36-.26-.54l-.53-.26-.27-.1.27-.15c-1-.68-2-1.35-3.07-2a6.86,6.86,0,0,1-.65-.58,9.9,9.9,0,0,1,3.13.78c1.81.82,3.6,1.67,5.36,2.6,2.85,1.5,5.68,3,8.5,4.62,1.47.82,2.92,1.67,4.32,2.59,6,3.95,12,7.94,18,11.92,5,3.29,9.88,6.69,14.62,10.31,2.6,2,5.27,3.88,7.9,5.82a12.54,12.54,0,0,1,1,.83,9.68,9.68,0,0,1-3.15-1.52l-23.86-16.23c-3.47-2.36-6.94-4.71-10.44-7-1.73-1.14-3.51-2.21-5.29-3.27q-4.27-2.53-8.57-5a12.94,12.94,0,0,0-1.43-.63,8.57,8.57,0,0,0,1,.79c2.88,1.72,5.79,3.4,8.67,5.12,1.67,1,3.34,2,4.95,3.07q9,6.13,18,12.34a7.16,7.16,0,0,1,.76.7,5.62,5.62,0,0,1,.82.39q3.28,2.19,6.56,4.41a5.89,5.89,0,0,1,.53.48,5.17,5.17,0,0,1-.81-.29,41.79,41.79,0,0,1-7-4.76.74.74,0,0,1-.14-.22,2.11,2.11,0,0,1-.38-.11l-6.43-4.17c-1.36-.88-2.69-1.85-4.12-2.61-2.34-1.24-4.56-2.67-6.77-4.12a38.83,38.83,0,0,0-3.51-2.11,71.92,71.92,0,0,1-8.62-5.12,13.45,13.45,0,0,0-1.74-.87,4.63,4.63,0,0,0,.65.6c1.2.82,2.41,1.64,3.64,2.43a30,30,0,0,0,2.6,1.58,74.67,74.67,0,0,1,8.66,5.13,13.51,13.51,0,0,0,1.68,1.06c4,2,7.61,4.67,11.37,7.06q2.4,1.53,4.69,3.23a43.56,43.56,0,0,0,5.22,3.39c1.06.56,2.08,1.17,3.1,1.78,4.06,2.42,8.08,4.92,12,7.53a3.24,3.24,0,0,1,.43.4,13.06,13.06,0,0,1-1.39-.57c-6.87-3.55-13.54-7.45-20.26-11.24-5-2.81-9.83-5.77-14.66-8.78-1.08-.68-2.21-1.3-3.32-1.93a57.78,57.78,0,0,1-7.3-4.8c-1.11-.86-2.26-1.7-3.43-2.48-3.05-2.05-5.89-4.37-8.72-6.7A27.8,27.8,0,0,1,133.64,257.79Zm58.65,35.07c-4.36-3.24-8.69-6.52-13.06-9.74-6-4.39-12.22-8.42-18.41-12.5-3.17-2.1-6.33-4.21-9.53-6.24-1.86-1.19-3.79-2.27-5.72-3.34-3-1.68-6-3.3-9.06-5a2.74,2.74,0,0,1-.45-.39c.54.13,1.09.23,1.62.4a60.69,60.69,0,0,1,9.38,4c4.68,2.46,9.42,4.82,13.93,7.6,1.58,1,3.13,2,4.64,3.07,3.19,2.29,6.39,4.57,9.51,7,2.1,1.6,4.08,3.37,6.1,5.08s4.25,3.71,6.43,5.51a75.78,75.78,0,0,1,6.15,5.59C193.31,293.52,192.77,293.23,192.29,292.86Zm2.48,2.43A27.87,27.87,0,0,1,197,297a2.72,2.72,0,0,1-.66-.24,18.52,18.52,0,0,1-3.47-2.34A14.4,14.4,0,0,1,194.77,295.29ZM202,299.9a1.45,1.45,0,0,1-.68-.94Zm-2.14.37c-1.64-.53-3.27-1.08-4.88-1.7-2.26-.87-4.49-1.84-6.75-2.72a80,80,0,0,1-8.73-4.13,113.32,113.32,0,0,1-12.35-7.2c-4.72-3.35-9.53-6.58-14-10.28l-2.87-2.34c-1.12-.78-2.23-1.57-3.35-2.34-.36-.24-.75-.43-1.12-.64a7.84,7.84,0,0,0,.9.92c6,4.52,11.82,9.23,17.95,13.56a124.51,124.51,0,0,0,13.69,8.28c2.11,1.11,4.25,2.16,6.37,3.24.29.15.55.34.83.52a11.94,11.94,0,0,1-3.57-1.15,120.8,120.8,0,0,1-16.73-9.1c-2-1.38-4.13-2.73-6.19-4.1a31.25,31.25,0,0,1-4.8-3.94,63.74,63.74,0,0,0-7.32-5.89,2,2,0,0,0-.6-.22,11.21,11.21,0,0,0,.89.93c1.17.94,2.39,1.83,3.55,2.78s2.22,1.89,3.27,2.9a33.36,33.36,0,0,0,4.62,3.77c4.49,3,8.9,6.08,13.67,8.61a3.41,3.41,0,0,1,.48.37,5.21,5.21,0,0,1-.82-.24,84.31,84.31,0,0,1-18.2-11.22,108.21,108.21,0,0,1-8.54-7.91,10,10,0,0,1-.76-1,21.92,21.92,0,0,1-1.71-1.62c-1.56-1.8-3.07-3.64-4.61-5.47a7.78,7.78,0,0,1,1,.65c1.29,1.09,2.56,2.22,3.86,3.31a11.66,11.66,0,0,0,1.16.77v-.25l.51.24.27.27a2.24,2.24,0,0,1,.47.21l4.88,3.71c2.1,1.23,4.2,2.44,6.29,3.68s4.21,2.59,6.34,3.85c3.73,2.2,7.46,4.4,11.23,6.53,5.5,3.11,11,6.16,16.56,9.21,1.55.85,3.14,1.62,4.72,2.42a8.23,8.23,0,0,0,1,.37v-.25l.51.25.53.25v.27l.53.27h0l.53.27h0c.35.24.68.5,1,.71.52.3,1.05.56,1.58.84A7,7,0,0,1,199.85,300.27Zm-58-46.41a84.53,84.53,0,0,1,13.9,3.79,55.56,55.56,0,0,1,15.57,8.91c1.37,1.11,2.7,2.27,4,3.43a11.52,11.52,0,0,1,.93,1,2.35,2.35,0,0,1-.43-.19l-10.51-6.92a33.39,33.39,0,0,0-5.25-2.79,66.67,66.67,0,0,1-6.12-2.84,39.09,39.09,0,0,0-11.32-3.95,11.18,11.18,0,0,1-2.54-.75C140.7,253.67,141.28,253.75,141.85,253.86Zm-9.71-.92c2.65.71,5.28,1.45,7.92,2.16.5.14,1,.21,1.54.32a8.22,8.22,0,0,0-1.16-.56c-1.87-.54-3.74-1.05-5.61-1.58a2.13,2.13,0,0,1-1-.55c.9.18,1.81.33,2.71.54l10.31,2.42a22.82,22.82,0,0,1,4.58,1.73c3.18,1.52,6.39,3,9.57,4.55a42.06,42.06,0,0,1,4,2.26c2.77,1.74,5.52,3.52,8.22,5.35a46.45,46.45,0,0,1,9.68,8.4c3.17,3.75,6.44,7.4,9.66,11.11a8.78,8.78,0,0,1,.68,1c-.34-.29-.71-.57-1-.89-3.47-3.44-6.93-6.9-10.41-10.34a9.48,9.48,0,0,0-1.24-.92,8,8,0,0,0,.71.92c4.27,4.29,8.58,8.54,12.81,12.86,1.86,1.9,3.57,3.92,5.34,5.9a5.33,5.33,0,0,1,.5.74,5,5,0,0,1-.87-.52c-1.4-1.21-2.84-2.39-4.15-3.7a102.71,102.71,0,0,0-8.1-7.23c-1.9-1.51-3.7-3.15-5.5-4.78a84.07,84.07,0,0,0-8.17-6.53q-3-2.1-5.91-4.26a85.35,85.35,0,0,0-9.6-6.14c-2.78-1.53-5.61-3-8.4-4.5a73.89,73.89,0,0,0-16.09-6.37c-1.32-.35-2.6-.84-4-1.31A5,5,0,0,1,132.14,252.94Zm37-137.17c.29,1,.53,2,.81,2.94.58,2.08,1.15,4.17,1.77,6.24a60.39,60.39,0,0,1,2,8.37c.16,1.09.28,2.19.34,3.29a44.76,44.76,0,0,1,0,5c-.35-1.23-.69-2.46-1-3.69a120.18,120.18,0,0,1-3.14-14.63c-.15-1-.17-2-.32-3-.29-1.89-.63-3.77-.95-5.66A9.27,9.27,0,0,1,169.14,115.77Zm-1.08-3.52a3,3,0,0,1-.74-1.85C167.57,111,167.82,111.63,168.06,112.25Zm-2.33,7.39a5.06,5.06,0,0,1,.22-1.32c0,.47,0,1,0,1.42.13,1.71.32,3.43.41,5.14a68.91,68.91,0,0,0,1.59,9.26c.6,3.26,1.31,6.49,1.84,9.76A61.17,61.17,0,0,1,171,157.34a54.68,54.68,0,0,1-1.12,9.19c-.41,1.81-.79,3.62-1.2,5.43-.09.37-.24.73-.36,1.09l-.12,0c.08-.57.17-1.12.24-1.69a79.9,79.9,0,0,0,.3-10.72c0-2.39-.15-4.77-.21-7.16a48.91,48.91,0,0,0-.87-5.89c-.48-3.23-.9-6.48-1.41-9.7a76.43,76.43,0,0,1-.9-11.09C165.28,124.4,165.58,122,165.73,119.64Zm-.49-12.12c-.06.51-.1,1-.18,1.54-.18,1.22-.39,2.44-.57,3.66a4.17,4.17,0,0,0,0,.79c0,.88.13,1.76.11,2.64-.05,1.89-.14,3.79-.24,5.69-.13,2.73-.32,5.46-.41,8.19-.08,2.16,0,4.33-.08,6.49a64.24,64.24,0,0,0,.24,8.21c.09.83.28,1.65.45,2.47.49,2.33,1,4.66,1.47,7a13.45,13.45,0,0,1,.18,2.11c.09,3.93-.19,7.85-.39,11.78a55.85,55.85,0,0,1-.95,7.74,27,27,0,0,1-.86,3.81,9.14,9.14,0,0,1-.54,1c-.26.54-.38,1.15-.59,1.71-.9,2.42-1.81,4.84-2.7,7.26a.41.41,0,0,0,0,.16c-.1.18-.19.37-.29.56l-.08-.14a87.87,87.87,0,0,0,4.2-14.28c1-5.52.56-11-.09-16.5a169.28,169.28,0,0,1-1.13-17.14c-.08-5.81-.12-11.64.07-17.45A83.64,83.64,0,0,1,165,107.73,1.29,1.29,0,0,1,165.24,107.52Zm-.45,15.26a41.86,41.86,0,0,1,.3-7.75C165.39,117.63,164.86,120.2,164.79,122.78Zm-6.06,28.63a93.84,93.84,0,0,1-.9-11.36,64.87,64.87,0,0,1,1.33-12.5A104.25,104.25,0,0,1,162.67,114c.11-.3.25-.59.38-.88-.15.69-.29,1.39-.45,2.09-.86,3.7-1.88,7.37-2.56,11.1a69.36,69.36,0,0,0-1.57,13.4,77.23,77.23,0,0,0,1.07,11.86c.59,3.4,1,6.82,1.64,10.21.54,2.92.76,5.86,1,8.81a31.79,31.79,0,0,1-.54,9,2.78,2.78,0,0,1-.33.88,16.45,16.45,0,0,1,0-1.72,40.42,40.42,0,0,0-.17-7.54C160.63,164.53,159.6,158,158.73,151.41Zm2.93,30.4a33.09,33.09,0,0,0,1.13-9.84,93.74,93.74,0,0,0-1-9.88c-.58-3.21-1-6.45-1.54-9.67-.18-1.14-.45-2.26-.56-3.4-.28-2.72-.53-5.45-.7-8.18a34.39,34.39,0,0,1,.42-6.87c.41-2.84.7-5.71,1.3-8.51.9-4.26,2-8.48,3-12.72a73.26,73.26,0,0,0-1.16,9.58c-.3,5.62-.25,11.26-.22,16.89s.18,11.48.78,17.19,1.45,11.25.8,16.9a64.05,64.05,0,0,1-3.4,13.55Q161.07,184.33,161.66,181.81Zm-2.31,10.06.12-.33a21.59,21.59,0,0,0,1.75-3.33c0-.07.06-.13.08-.19,2.28-5.43,4.37-10.91,4.77-16.87.21-3,.4-6,.51-9,.09-2.15.09-4.32,0-6.48a19.55,19.55,0,0,0-.45-3.4c-.43-2.08-1.07-4.12-1.37-6.21a69.91,69.91,0,0,1-.6-7.38c-.09-2.6-.05-5.21,0-7.82,0-1.89.2-3.78.37-5.68,0,.34.05.68.07,1a98.6,98.6,0,0,0,1.23,13.18c.54,3,.84,6.13,1.41,9.16a46.4,46.4,0,0,1,.84,8.55c0,3.49.15,7,.17,10.46a30.59,30.59,0,0,1-2.19,11.38c-.21.52-.42,1-.64,1.56a.14.14,0,0,0-.06.16c-.35.85-.71,1.71-1.06,2.57-.18.44-.32.91-.48,1.37a2.7,2.7,0,0,0,1-1.52c1.12-2.64,2.22-5.29,3.28-8a48.13,48.13,0,0,0,2-7.67A56.89,56.89,0,0,0,171.32,153c-.09-2-.41-3.94-.64-5.91-.46-3.91-1.34-7.74-2.13-11.59-.42-2-.87-4.06-1.21-6.1s-.55-3.84-.76-5.77c-.58-5.11-.2-10.24-.32-15.36a.59.59,0,0,1,.16-.39l.12,1.11a15.48,15.48,0,0,0,.81,3.47,34.65,34.65,0,0,1,1.83,8.79c.18,1.93.53,3.84.82,5.76a105.61,105.61,0,0,0,3.11,13.27c.46,1.61.74,3.28,1,4.92a7.16,7.16,0,0,1,.07,1.85c-.33,3.6-.82,7.19-1,10.82a43,43,0,0,1-1.59,8.45,79.49,79.49,0,0,1-5.09,14.19c-.84,1.8-1.78,3.55-2.69,5.32a11.35,11.35,0,0,1-.82,1.18l-.24.5V187a10.61,10.61,0,0,0-.76,1c-.78,1.37-1.51,2.76-2.29,4.12a11.11,11.11,0,0,1-.9,1.15C159,192.8,159.18,192.33,159.35,191.87Zm-20.94-38c1.45,5.28,2.9,10.56,4.31,15.84a34.82,34.82,0,0,1,1.2,10.89,38.36,38.36,0,0,1-1.85,10.67q-1.84,5.31-3.65,10.64a36.29,36.29,0,0,1-3.48,6.83.36.36,0,0,1-.39.22l.15-.45c1.19-3.28,2.4-6.55,3.57-9.84A76.71,76.71,0,0,0,141.81,184a31,31,0,0,0-.09-8.71c-.08-.61-.17-1.22-.2-1.84-.14-2.72-1.09-5.27-1.59-7.91s-1.12-5.36-1.56-8.05c-.28-1.71-.34-3.46-.49-5.19C138.06,152.82,138.27,153.33,138.41,153.86Zm-1.39-3.3c.1.6.22,1.2.28,1.8.13,1.23.17,2.47.34,3.69s.46,2.7.71,4c.34,1.87.68,3.74,1,5.6a18.69,18.69,0,0,0,.53,2.33,44.47,44.47,0,0,1,1.37,7.68,37.25,37.25,0,0,1-.93,13.67,82.63,82.63,0,0,1-3.57,11.93c-1.23,3.11-2.29,6.31-3.48,9.44a10.94,10.94,0,0,1-2.83,4c.31-.75.61-1.51.94-2.25.79-1.82,1.6-3.63,2.39-5.46.36-.85.64-1.74,1-2.59a53,53,0,0,0,3.61-13.26,57.26,57.26,0,0,0,1-10.28c0-2.38-.29-4.76-.5-7.13s-.48-5-.73-7.52c-.41-4.13-.85-8.26-1.23-12.39A20.63,20.63,0,0,1,137,150.56Zm-1.85,1.09c0,.48,0,1,0,1.45s0,1.06-.07,1.59a52.79,52.79,0,0,0,.76,14.63,46.41,46.41,0,0,1,.92,12c-.15,2.2-.18,4.41-.28,6.61a49.78,49.78,0,0,1-1.39,8.49c-.71,3.19-1.44,6.37-2.16,9.56a11.31,11.31,0,0,0-.12,1.17,8.7,8.7,0,0,0,.5-1.18c1.27-4.69,2.21-9.46,3.16-14.22a22.4,22.4,0,0,0,.37-3.28c.12-2.3.18-4.59.29-6.89,0-1,.17-1.93.19-2.9a37,37,0,0,0-.61-6.72c-.4-2.53-.79-5.06-1.11-7.6a32.61,32.61,0,0,1-.16-3.7A82.38,82.38,0,0,1,136,149a2.73,2.73,0,0,1,.63-1.46,10.07,10.07,0,0,1,0,1.1,30.38,30.38,0,0,0,0,6.74c.26,2.32.35,4.66.57,7,.41,4.31.83,8.61,1.3,12.91a51.52,51.52,0,0,1-.11,12.16,74.84,74.84,0,0,1-1.88,10.42c-.51,1.87-1.15,3.71-1.81,5.53-.58,1.61-1.28,3.18-1.93,4.78l-.13.21-.13-.21c-.18.43-.41.86-.55,1.31a27.66,27.66,0,0,1-2.22,5.23,3.11,3.11,0,0,1-.86,1c.12-.45.23-.9.35-1.36.79-3.12,1.62-6.24,2.36-9.37.86-3.61,1.27-7.3,1.8-11a114.23,114.23,0,0,0,1-19.3c-.11-4.59-.17-9.18-.26-13.77A46.69,46.69,0,0,1,135.17,151.65Zm-3.37,11.76a28.07,28.07,0,0,1,2.34-9.57c-.11,1.27-.18,2.53-.33,3.79a58.36,58.36,0,0,0-.15,6.87c0,6.92.46,13.84.16,20.77-.13,2.91-.39,5.8-.8,8.69s-.83,5.75-1.3,8.62c-.16,1-.47,2-.73,3.07.22-2,.4-3.94.68-5.9.31-2.18.76-4.35,1.09-6.53a30.3,30.3,0,0,0,.34-3.69,79.59,79.59,0,0,0,0-8.6c-.15-2.2-.38-4.4-.63-6.59s-.65-4.64-.84-7A27.79,27.79,0,0,1,131.8,163.41Zm-4.36,52.74a54.74,54.74,0,0,0,3.26-15.5,138.45,138.45,0,0,0,.3-14.83c-.13-3-.38-6-.61-9a47.59,47.59,0,0,1,.72-11.9,92.78,92.78,0,0,0,1.1,10.37,87.15,87.15,0,0,1,.54,13.89,63.42,63.42,0,0,1-1,8c-.39,2.17-.64,4.37-1,6.54-.49,3-1,5.91-1.54,8.87a31.49,31.49,0,0,1-1.45,5.49,6.64,6.64,0,0,1-1.7,2.67C126.54,219.09,126.92,217.59,127.44,216.15Zm-14.16,19.16c1.6-1.85,3.3-3.62,5-5.4a6.58,6.58,0,0,1,1-.77l.1-.09-.09.1a23.9,23.9,0,0,1-1.6,2.24c-2.17,2.38-4.38,4.71-6.58,7.06a2.56,2.56,0,0,1-.26.2C111.66,237.53,112.39,236.35,113.28,235.31ZM95.3,224a100,100,0,0,0-1.82-12.58A53,53,0,0,0,92,204.92,41,41,0,0,0,89.71,199a37.37,37.37,0,0,1-2.94-9.46q-.57-2.86-1-5.74a17.49,17.49,0,0,1-.12-2.05c.24.59.49,1.18.72,1.77.67,1.73,1.28,3.49,2,5.19,1.57,3.65,3.32,7.24,4.77,10.93a53.59,53.59,0,0,1,3.51,13.57,107.73,107.73,0,0,1,.55,18.4,80.3,80.3,0,0,1-1.52,13,62.34,62.34,0,0,1-2.32,7.73c.13-.85.23-1.71.41-2.55a91,91,0,0,0,1.55-11.28A117.89,117.89,0,0,0,95.3,224Zm5.92-3.14a36,36,0,0,1-.16,9.1,57.72,57.72,0,0,1-2.27,10.59,1.61,1.61,0,0,1-.37.69c.87-8.37,1.54-16.74,1.91-25.15A35.14,35.14,0,0,1,101.22,220.81ZM89.54,186.14q1.21,3.06,2.41,6.12a.58.58,0,0,1,0,.54c-.35-.7-.74-1.38-1.05-2.09a23.94,23.94,0,0,1-1.81-5.33A5,5,0,0,1,89.54,186.14Zm-.48-.77-.51-1.24A1.53,1.53,0,0,1,89.06,185.37Zm-3-7.71q1.8,5.61,3.59,11.22a10.06,10.06,0,0,0,.52,1.36c1.29,2.71,2.61,5.41,3.89,8.12.74,1.56,1.51,3.1,2.14,4.7,1,2.63,2,5.3,3,7.95a10.51,10.51,0,0,1,.58,3.77l0,4.64a41.07,41.07,0,0,1-.51,6.46,16.87,16.87,0,0,0-.24,3.17,62.91,62.91,0,0,1-.73,7.64c-.16,1.54-.3,3.08-.43,4.62a15.13,15.13,0,0,1-1.16,5c-.54,1.21-1,2.44-1.56,3.66a4.07,4.07,0,0,1-.41.61,17.07,17.07,0,0,1,.42-2,47.69,47.69,0,0,0,2-10.91c.23-2.82.52-5.63.63-8.45.1-2.6,0-5.21,0-7.81-.05-2-.24-4-.34-6a43.52,43.52,0,0,0-1.28-8.1,63.22,63.22,0,0,0-4.41-12.46c-1.06-2.18-2-4.43-3-6.62a47.5,47.5,0,0,1-2.89-8.65,34.43,34.43,0,0,1-.54-3.65A3.54,3.54,0,0,1,86.06,177.66Zm-1.48.71a.83.83,0,0,1,.16-.52c.09.9.22,1.8.28,2.7A66.22,66.22,0,0,0,87.4,194.1,26.85,26.85,0,0,0,89,198.44a50.62,50.62,0,0,1,4,12.34q.8,4.23,1.5,8.47a26.25,26.25,0,0,1,.37,3.43c.12,4,.34,8,.25,12a78.59,78.59,0,0,1-1.66,14.33c-.35,1.68-.61,3.39-1,5.08a6.57,6.57,0,0,1-1.12,2.9c.46-2.51,1-5,1.37-7.54a36.34,36.34,0,0,0,.38-4.89c0-3.71.06-7.42,0-11.13a52,52,0,0,0-.67-6.71c-.79-4.93-1.73-9.83-2.56-14.74-.74-4.45-1.8-8.83-2.93-13.19-.77-3-1.24-6-1.75-9A63.15,63.15,0,0,1,84.58,178.37Zm-.81,3.22c0-.35,0-.69.07-1l.2,0c.06,1,.17,1.93.16,2.89a54.09,54.09,0,0,0,.73,7.51c.63,4.64,1.8,9.17,2.86,13.73s1.94,9.34,2.85,14c.53,2.77,1,5.55,1.45,8.34a50.24,50.24,0,0,1,.69,7.65c0,3.4,0,6.8,0,10.2a42.4,42.4,0,0,1-.89,7.36c-.36,2-.82,4-1.26,6a6.87,6.87,0,0,1-1.39,2.86,23.2,23.2,0,0,1,.48-3,31.89,31.89,0,0,0,1-5.88,127.17,127.17,0,0,0,.62-13.09c0-1.81.06-3.63,0-5.43a54.34,54.34,0,0,0-1.84-12.28,216.06,216.06,0,0,1-5-22.35c-.34-2-.42-4.12-.6-6.19-.09-1.1-.14-2.2-.21-3.3,0-.27,0-.53,0-.8C83.64,186.36,83.7,184,83.77,181.59ZM83,184.22c0-.17.1-.33.15-.49l.19,0c0,1.09.07,2.19,0,3.27a21.9,21.9,0,0,0,0,4.36c.14,1.45.27,2.91.29,4.36a55.35,55.35,0,0,0,1.27,8.5c1,5.3,2.46,10.48,3.67,15.73.34,1.5.88,3,1.17,4.48.37,1.94.6,3.92.83,5.89a96.56,96.56,0,0,1,.23,13.5c0,1.85-.22,3.69-.4,5.53,0-1.36,0-2.73,0-4.09a65.5,65.5,0,0,0-2-16.13c-.58-2.26-.86-4.59-1.33-6.88-.67-3.2-1.39-6.39-2.08-9.58-.64-3-1.36-6-1.86-9.08a56.22,56.22,0,0,1-1-9.6A52.29,52.29,0,0,1,83,184.22Zm-2.31,11.89a23.67,23.67,0,0,1,.85-3.9c0,.18,0,.35,0,.53a72.15,72.15,0,0,0,1.84,15.49c.71,3.19,1.34,6.41,2.13,9.58.84,3.39,1.44,6.82,2.1,10.25.34,1.78.77,3.54,1.15,5.31a47.12,47.12,0,0,1,1,8.28c.11,2.74.13,5.48,0,8.22-.09,2.46-.4,4.92-.61,7.39l-.14-.05c0-.58,0-1.15,0-1.72-.07-2.48-.13-5-.23-7.42,0-.75-.17-1.49-.25-2.24-.44-4-.86-8.08-1.31-12.11A77,77,0,0,0,83,215.58a36.55,36.55,0,0,1-1.43-6.19c-.36-2-.65-4-1-6A24.54,24.54,0,0,1,80.72,196.11Zm7.31,65,.39-6.72C88.37,256.6,88.83,258.86,88,261.07Zm-4.26-33.45a6.69,6.69,0,0,1,.78,2.76A7,7,0,0,1,83.77,227.62ZM86,235.54c-.13-.63-.27-1.25-.41-1.88h0a5.74,5.74,0,0,0-.06-.93c-.59-2.3-1.19-4.61-1.81-6.91-.35-1.32-.78-2.62-1.11-3.94-.73-2.91-1.47-5.82-2.1-8.75a28.52,28.52,0,0,1-.6-9.47c.14.54.25.85.3,1.17.47,2.7.88,5.4,1.39,8.09a23.5,23.5,0,0,0,.9,3,86.22,86.22,0,0,1,3.39,12.1c.54,2.9.84,5.85,1.22,8.78.26,2,.48,4,.7,6a12.21,12.21,0,0,1,0,1.71Q87,240.08,86,235.54ZM62.57,306.63c-.69,1.42-1.34,2.87-2.08,4.27a19.52,19.52,0,0,1-1.35,2,38.35,38.35,0,0,1,3.36-6.29A7,7,0,0,1,64.09,304Zm34.48-33.21a5.62,5.62,0,0,1,2.09-1.84A5,5,0,0,1,97.05,273.42Zm2.37-2.11a1.19,1.19,0,0,1,1-.75Zm12.37-8.8a5.17,5.17,0,0,1-.64.28l4.88-4.06a1,1,0,0,1,.32-.11A20.18,20.18,0,0,1,111.79,262.51Zm22.46-16.2c-1.61.92-3.24,1.83-4.86,2.74a.88.88,0,0,1-.75.5l.74-.52a13.74,13.74,0,0,1,5-2.9C134.34,246.2,134.31,246.28,134.25,246.31Zm1.8-4.21a8.31,8.31,0,0,1,.58-.95c1.07-1.35,2.17-2.67,3.24-4a10.07,10.07,0,0,0,.67-1.1l-1,.77a5,5,0,0,1,.21-.58c1.54-3,3.1-6,4.62-9.08A80.1,80.1,0,0,1,150.26,217a52.1,52.1,0,0,1,4.75-5.85c.35-.37.75-.69,1.13-1a4.85,4.85,0,0,1-.31.65c-.86,1.29-1.71,2.58-2.61,3.84a49.64,49.64,0,0,0-4.77,8.23,71.07,71.07,0,0,1-4.33,7.59,14.15,14.15,0,0,0-.69,1.41,9.67,9.67,0,0,0,.84-1c1.95-3.05,3.69-6.22,5.38-9.43a58.43,58.43,0,0,1,11-15.14,2.11,2.11,0,0,1,.91-.6c-.17.21-.34.43-.52.64-.85,1-1.69,2-2.56,3a34,34,0,0,0-5.58,9.11,108.93,108.93,0,0,1-5.66,11.08,41.93,41.93,0,0,1-2.51,3.73c-1,1.37-2,2.69-3,4A11,11,0,0,1,139,240C138,240.68,137,241.4,136.05,242.1Zm32-38.84a5.67,5.67,0,0,1-.28.79c-1.93,3.52-3.83,7-5.82,10.54a26.62,26.62,0,0,1-2.53,3.55c-2.71,3.31-5.48,6.58-8.22,9.86-.24.29-.51.55-.76.82a9.2,9.2,0,0,1,.6-1.22c2-3.06,4-6.12,6.09-9.15,1.58-2.34,3.22-4.64,4.83-7,.88-1.27,1.77-2.54,2.64-3.82a5.14,5.14,0,0,0,.38-.82,10.5,10.5,0,0,0-.8.84c-1.37,1.84-2.74,3.68-4.08,5.53-.86,1.18-1.67,2.38-2.49,3.59-1.62,2.41-3.23,4.84-4.85,7.25a3.43,3.43,0,0,1-.49.52,8.89,8.89,0,0,1,.46-1.15c.82-1.51,1.66-3,2.5-4.5.74-1.3,1.51-2.58,2.2-3.91a27,27,0,0,1,3.75-5.25c.94-1.05,1.84-2.13,2.71-3.24a28.83,28.83,0,0,1,3.67-4.13,7.88,7.88,0,0,1,.85-.57l-.27.78a1.47,1.47,0,0,0-.79,1.08Zm-.92-1.1a29.24,29.24,0,0,0-3.77,4.24c-.81,1-1.65,2.06-2.54,3a25.54,25.54,0,0,0-3.94,5.61c-.65,1.29-1.4,2.54-2.11,3.81-1,1.85-2.07,3.68-3.06,5.55a30,30,0,0,1-3.41,5,4,4,0,0,1-.54.47c.18-.42.35-.86.57-1.27,1.86-3.46,3.71-6.92,5.27-10.54a31,31,0,0,1,4.88-7.86c1.66-1.95,3.33-3.9,5-5.8a12.28,12.28,0,0,1,4.06-2.83A3.14,3.14,0,0,1,167.09,202.16Zm-16.77,25.43a.84.84,0,0,1-.08.33,31.62,31.62,0,0,1-4.61,6.05,1.61,1.61,0,0,1-.31.19,1.6,1.6,0,0,1,.16-.45Zm60,35.42a45.84,45.84,0,0,1-6.08-.29c-3.2-.36-6.39-.84-9.58-1.29-2.75-.39-5.49-.89-8.25-1.22-2.5-.3-5-.54-7.46-1.08-3.19-.7-6.37-1.46-9.55-2.18-.43-.1-.86-.15-1.29-.23a8.82,8.82,0,0,0,1.17.54A100.58,100.58,0,0,0,184,260.41c4.22.49,8.4,1.14,12.58,1.82,2.44.4,4.9.65,7.4,1l-.14.08A121.83,121.83,0,0,1,190,263a97.49,97.49,0,0,1-16.15-2.9,72.94,72.94,0,0,1-13.61-4.75c-1.91-.92-3.76-2-5.63-3a2.67,2.67,0,0,1-.45-.38l4,1.17,1.52.41a2.9,2.9,0,0,0-.64-.41q-2.53-.85-5.08-1.68a2.86,2.86,0,0,0-.65-.06h0a5.1,5.1,0,0,0-.89-.48,57.17,57.17,0,0,1-8.27-4c.47.13.94.25,1.4.42A64.8,64.8,0,0,0,154,250.2c4.46.91,8.77,2.36,13.19,3.44,7.71,1.88,15.43,3.76,23.26,5.16,3.65.65,7.3,1.31,11,1.87,2.57.38,5.17.59,7.76.88,2.32.26,4.64.53,7,.91C214.21,262.66,212.26,263,210.31,263Zm1.41-1.69c-2.71-.37-5.45-.57-8.16-.94-3.32-.47-6.64-.95-9.94-1.57q-7.87-1.5-15.71-3.18c-3.75-.81-7.48-1.73-11.21-2.65-1.93-.48-3.81-1.12-5.73-1.64-1.66-.45-3.33-.89-5-1.22a52.33,52.33,0,0,1-7.48-2.24.68.68,0,0,1-.4-.4c.8.11,1.61.18,2.41.35,4.66,1,9.33,1.95,14,3Q169.7,252,175,252.76c3.66.56,7.32,1.16,11,1.73,2.31.37,4.63.68,6.93,1.07,3.13.55,6.26,1.11,9.37,1.74,3.72.75,7.46,1.47,11.13,2.41,3,.77,6.07,1.18,9.09,1.82l1.57.37A59.54,59.54,0,0,1,211.72,261.32Zm-63.67-14.4,7.82.73c2,.19,3.95.48,5.93.6A116.92,116.92,0,0,1,176.24,250c3.16.6,6.36,1,9.52,1.66,3.76.75,7.49,1.67,11.24,2.47,7.23,1.52,14.26,3.72,21.32,5.84a1,1,0,0,1,.59.4,8.94,8.94,0,0,1-1-.11c-2.54-.59-5.06-1.26-7.6-1.79-5.58-1.14-11.15-2.3-16.76-3.28-6.12-1.08-12.27-2.07-18.43-2.92-5.74-.79-11.35-2.19-17-3.38-3.11-.65-6.24-1.19-9.36-1.78A5.25,5.25,0,0,1,148.05,246.92Zm48.09-2.8a124.1,124.1,0,0,0-13.26-3.44A42.15,42.15,0,0,1,196.14,244.12Zm-40.75-3a3.38,3.38,0,0,1,.62-.18c3.44-.21,6.87-.43,10.31-.62,1.5-.08,3-.13,4.5-.18a52.53,52.53,0,0,1,12.74,1.25,109.81,109.81,0,0,1,17.12,5c.9.36,1.79.75,2.66,1.19q5,2.55,10,5.15A64.2,64.2,0,0,1,220,257l-.41.24c.17.18.34.35.5.53a1.75,1.75,0,0,1-1.27-.53l-.54-.26c-.5-.16-1-.28-1.5-.47-5.35-2.18-10.68-4.42-16.06-6.55A65.67,65.67,0,0,0,190,246.42c-3.28-.7-6.59-1.25-9.87-1.95s-6.64-.94-10-1.33c-2.19-.25-4.38-.55-6.57-.82a70,70,0,0,0-10.82-.75.88.88,0,0,1-.67-.19Zm-12.21,2.17a23.45,23.45,0,0,1,7.44-1.09c1,0,2,0,3,0a82.45,82.45,0,0,1,11.75.9c2.5.33,5,.69,7.5.93a72.08,72.08,0,0,1,7.46,1.09c2.9.59,5.83,1.05,8.71,1.71,2.32.54,4.61,1.22,6.87,2,5.7,1.9,11.25,4.21,16.78,6.56,3.13,1.33,6.24,2.7,9.35,4.08a7.39,7.39,0,0,1,1.11.74c-2.23-.72-4.48-1.41-6.7-2.19-4.83-1.69-9.64-3.45-14.46-5.17a83.84,83.84,0,0,0-9.09-2.4c-5.79-1.38-11.66-2.44-17.53-3.41-3-.5-6-.9-9-1.33a10.4,10.4,0,0,0-1.37,0c.7.16,1.38.38,2.09.47,7.24,1,14.45,2.25,21.59,3.81,3.1.68,6.18,1.45,9.27,2.19,2.88.7,5.58,1.92,8.37,2.89,4.62,1.62,9.25,3.2,13.87,4.8,1.25.43,2.49.9,3.73,1.37a3.33,3.33,0,0,1,.59.36l-4.85-1.5c-6.27-2-12.5-4.06-18.92-5.52-6.06-1.38-12.13-2.75-18.23-4-4.41-.88-8.87-1.51-13.31-2.21-1-.17-2.11-.2-3.16-.3-3.69-.35-7.38-.69-11.07-1.06-3.06-.3-6.13-.61-9.19-.94-1-.2-1.9-.38-2.86-.54a.31.31,0,0,0-.22-.24,17,17,0,0,0-3-.54c0-.09,0-.18-.05-.3a10.23,10.23,0,0,1,4.46-.32,31.12,31.12,0,0,0,5.95.06l-7.77-.36,0-.16C142.57,243.48,142.87,243.35,143.18,243.26Zm-1.36-1.16c-1.36.69-2.77,1.26-4.15,1.87a1.77,1.77,0,0,1,.42-.4q2.74-1.44,5.52-2.85a2.85,2.85,0,0,1,.59-.16A23.5,23.5,0,0,1,141.82,242.1Zm28.5-13,1.19-.48A1.83,1.83,0,0,1,170.32,229.13Zm6.09-2.48-4.78,1.93a1.62,1.62,0,0,1,.45-.34,51.36,51.36,0,0,1,5-2A4.08,4.08,0,0,1,176.41,226.65ZM189,222.13l0-.19a1,1,0,0,1,.4-.1c.1,0,.18.13.42.33Zm12.17,3.09c.3,0,.6,0,.91,0,2.06.16,4.13.32,6.19.51,4,.37,8,.07,12.05.29,3.8.21,7.59.26,11.39.18,1.94-.05,3.88-.21,5.82-.19,3.93,0,7.86.16,11.79.25v.19c-1.59.09-3.17.17-4.75.28-2,.14-4,.29-6.08.45a70.27,70.27,0,0,1-7.68,0c-3.79-.11-7.59-.19-11.39-.16a55.49,55.49,0,0,1-8.45-.5c-2-.29-4-.43-6.06-.63A14.12,14.12,0,0,1,201.16,225.22Zm54,2a97.39,97.39,0,0,1-10.64,1.4,128.11,128.11,0,0,1-16.27.67c-4.11-.17-8.21-.4-12.3-.79-2.5-.24-5-.83-7.43-1.3a8.12,8.12,0,0,1-1.31-.45c1.39.11,2.78.16,4.15.36a52.55,52.55,0,0,0,8.32.44c3.67-.05,7.34,0,11,.06,2,0,4,.17,6,.17,1.19,0,2.38-.17,3.57-.25,1.36-.08,2.73-.12,4.1-.22,2.68-.2,5.37-.43,8.05-.66s5.19-.47,7.82-.49C258.48,226.52,256.81,226.89,255.14,227.23Zm9.7-2.68c-2.36.37-4.72.67-7.09,1a9.37,9.37,0,0,1-1.18.09c-5.22,0-10.43,0-15.65,0-3.79,0-7.59.16-11.39.21-1.81,0-3.62,0-5.43,0s-3.36-.1-5-.14c-4.06-.09-8.13-.11-12.19-.29-2.28-.1-4.56-.43-6.84-.68a27.85,27.85,0,0,1-3.28-.47c-1.45-.33-2.88-.79-4.32-1.2a56.12,56.12,0,0,1,9.79.48,33.57,33.57,0,0,0,4.49.37c2.51.11,5,.16,7.54.22,1.86,0,3.72.09,5.57.06,3.27,0,6.54-.17,9.81-.2,4.19,0,8.39-.07,12.59,0,4,.07,8,.24,12.05.42,3.28.15,6.53-.24,9.8-.39,1.36-.07,2.73-.11,4.1-.09A15.23,15.23,0,0,1,264.84,224.55Zm-.58-3.12-3.62-.35c-1.49-.14-3-.32-4.48-.4-2.65-.14-5.3-.2-8-.35-9.4-.53-18.82-.25-28.23-.22-4.41,0-8.83.24-13.23.58-3.66.28-7.31.63-11,.77-.88,0-1.75.17-2.91.29a4.58,4.58,0,0,1,2.22-.78c2.08-.37,4.18-.66,6.27-1,2.3-.38,4.6-.85,6.91-1.21,1.91-.29,3.84-.52,5.77-.7,3-.29,5.89-.51,8.84-.75.57,0,1.15,0,1.72-.07,1.94-.08,3.88-.27,5.82-.23,3.31.07,6.62.27,9.93.43,1.67.08,3.34.19,5,.29A75.94,75.94,0,0,1,256,219.23c2.5.51,5,1.14,7.48,1.72a8.39,8.39,0,0,1,.84.3Zm.74.74c-1.1,0-2.2,0-3.3,0l-19.47.22-2.52,0-26.77.35c-4.86.06-9.72,0-14.57-.35-.91-.06-1.83-.2-2.74-.31v-.07l4.1-.27,9.37-.71,1.06-.09c7.19-.3,14.39-.51,21.59-.33,1.86.05,3.71,0,5.57,0q5.35.07,10.73.24c2.47.08,4.94.17,7.41.34,2.73.18,5.45.47,8.17.72A8,8,0,0,1,265,222.17Zm4.63,1.11c-2.91.16-5.82.37-8.73.48-2.38.09-4.77.13-7.15.09-3.8-.07-7.59-.24-11.39-.33-3-.07-5.92-.15-8.88-.12-4.68,0-9.36.23-14,.29-2.25,0-4.5-.12-6.75-.18l0-.13.66,0,22.79-.31c6.18-.09,12.37-.15,18.55-.31,2.74-.07,5.47-.13,8.21,0,2,.11,4,.07,6,.12a3.9,3.9,0,0,1,1.68.37Zm2.13-1.25a1.17,1.17,0,0,1,.29.22,19.7,19.7,0,0,1-5.95-1,83,83,0,0,0-13-3,100.27,100.27,0,0,0-16.22-1.33c-1.24,0-2.47-.15-3.71-.19a93.36,93.36,0,0,0-12.17.42c-2.59.24-5.2.32-7.79.6s-5.07.7-7.59,1.1-5,.86-7.44,1.23a34.28,34.28,0,0,0-5.68,1.26,4.81,4.81,0,0,1-1,.27,1.14,1.14,0,0,1-.86-.36l1.71-.57a92.84,92.84,0,0,1,11.62-2.61c3.26-.57,6.53-1.09,9.81-1.52,2.27-.31,4.58-.38,6.86-.65a110.59,110.59,0,0,1,14.56-.46c2.06,0,4.13.36,6.19.55l4.48.44a106,106,0,0,1,19.93,3.49C267.8,220.5,269.76,221.31,271.76,222Zm-55.59-8.13a92.74,92.74,0,0,1,16-1,100.9,100.9,0,0,1,27.2,4.63,6.38,6.38,0,0,1,1,.45l-2-.32c-2.84-.43-5.66-.92-8.51-1.27-3.94-.48-7.89-.92-11.85-1.26-2.06-.18-4.14-.16-6.22-.19-1.41,0-2.82.09-4.23.06a81.54,81.54,0,0,0-9.51.68c-2.11.21-4.23.36-6.32.67-2.92.43-5.83.95-8.74,1.48-1.95.34-3.89.75-5.85,1.08a11.15,11.15,0,0,1,2.59-1.1A119.64,119.64,0,0,1,216.17,213.9Zm9-11.25A40.25,40.25,0,0,1,219,206.8c-5,2.74-10.06,5.52-15.09,8.27-1.13.61-2.27,1.2-3.44,1.7a18.19,18.19,0,0,1-2.32.68,7.91,7.91,0,0,1,.81-.52,235.16,235.16,0,0,0,23.17-12.79c1.13-.71,2.31-1.34,3.47-2A3.35,3.35,0,0,1,225.14,202.65Zm15.63-6.21a13.73,13.73,0,0,1,4.94.57Zm-.25-.71v-.14L254,194.52c.71-.05,1.42-.05,2.12-.06a80.34,80.34,0,0,0,11.48-1,81.51,81.51,0,0,1,9-.83c2.58-.09,5.11-.42,7.65-.72l8.68-1c1.67-.19,3.33-.42,5-.62a7.73,7.73,0,0,1,2.25,0c-.28.11-.55.22-.83.31a61.17,61.17,0,0,1-8.27,1.78c-3.4.55-6.79,1.2-10.19,1.72-2.18.33-4.39.51-6.59.71-2.94.27-5.89.56-8.84.73-4.15.22-8.3.46-12.46.28-2.51-.1-5-.08-7.55-.11Zm51.53-.85a79.89,79.89,0,0,1-15.85,3.64c-2.59.3-5.19.46-7.79.63-1.76.12-3.53.19-5.29.21a68.41,68.41,0,0,1-16.91-2.15,1.59,1.59,0,0,1-.32-.16c2.63.17,5.25.37,7.88.49,3.45.14,6.89.22,10.33.3,2.43.06,4.87.06,7.3.09a33.28,33.28,0,0,0,6.46-.46,27.88,27.88,0,0,1,3.17-.31,21.26,21.26,0,0,0,4.51-1c2.72-.78,5.45-1.49,8.18-2.21a4.71,4.71,0,0,1,.85-.08C293.73,194.22,292.9,194.6,292.05,194.88Zm6.14-2.64c-2.35.64-4.71,1.21-7.05,1.83-1.84.48-3.68,1-5.49,1.53a25.8,25.8,0,0,1-5.57,1.1c-1.45.13-2.89.34-4.34.47-1.15.1-2.3.17-3.44.17-4.25,0-8.49,0-12.73-.09-3.36-.08-6.71-.31-10.06-.48a17,17,0,0,1-3.43-.48c.44,0,.87,0,1.31,0l8,.2c.35,0,.7,0,1.06,0,4-.2,7.94-.17,11.9-.62,2.59-.29,5.2-.38,7.79-.64,2.15-.22,4.3-.49,6.43-.84,3.88-.64,7.75-1.3,11.6-2.07,2.33-.47,4.62-1.17,6.93-1.76l1.47-.37A13.51,13.51,0,0,1,298.19,192.24Zm3.48-2.73a67.2,67.2,0,0,0-7.64.74c-2,.24-4,.41-6.06.65-2.42.29-4.82.61-7.23.91a14.29,14.29,0,0,1-1.58.15,100.78,100.78,0,0,0-10.84.82c-1,.12-1.91.33-2.87.46a79.61,79.61,0,0,1-10.58.65c-.13,0-.25,0-.38-.07l0-.15c1.7-.26,3.4-.48,5.09-.79,1.35-.25,2.69-.54,4-.9a74.87,74.87,0,0,1,13-2.35l7.65-.69c.79-.07,1.59-.08,2.39-.1l16.16-.34a19.2,19.2,0,0,1,2.51.14A8.09,8.09,0,0,1,301.67,189.51Zm-61.25,4.78A95,95,0,0,1,263.23,188,122,122,0,0,1,284,186.67c2.07,0,4.15.06,6.23.12,1.14,0,2.28.17,3.42.32-1.49.11-3,.24-4.46.34-3.13.21-6.26.35-9.38.62-3.65.32-7.31.58-10.92,1.19a26.11,26.11,0,0,1-3.3.3,61.27,61.27,0,0,0-11.08,1.89c-2.75.64-5.51,1.24-8.26,1.88a9.8,9.8,0,0,0-1.45.55c.43-.08.86-.13,1.29-.22,4.74-1,9.47-2.14,14.22-3.11,1.81-.37,3.67-.47,5.51-.68l5.39-.6c1.27-.14,2.54-.3,3.81-.42,1.67-.17,3.34-.31,5-.46l.93-.06,6.2-.47c.13,0,.26,0,.39,0,3.75-.12,7.5-.47,11.25-.29a19.25,19.25,0,0,1,4.43.78l-1.39,0c-3.76,0-7.51-.05-11.27,0-4.2,0-8.38.29-12.56.68a96.75,96.75,0,0,0-11,1.64c-.69.15-1.39.3-2.06.51a51,51,0,0,1-8.66,1.86c-3.23.46-6.45,1-9.68,1.47-1.6.22-3.22.29-5,.45l.85-.52-2.61.26A5.67,5.67,0,0,1,240.42,194.29Zm-.91,1.9-4.25.41C236.22,195.92,236.48,195.89,239.51,196.19Zm1.56-7.93c.63-.76,1.26-1.51,1.87-2.29a6.9,6.9,0,0,0,.52-.87c-.76.78-1.54,1.54-2.28,2.34-1.81,2-3.6,3.95-5.39,5.93a2.5,2.5,0,0,1-1,1.23l1-1.29a6.69,6.69,0,0,1,.56-.89q3.57-4.24,7.18-8.47a5.6,5.6,0,0,1,1.24-1c.14-.09.4,0,.61,0a19.17,19.17,0,0,1,4.09-2.07s.07,0,.19.13c-.75.68-1.48,1.36-2.24,2q-2.85,2.46-5.73,4.9A2.39,2.39,0,0,1,241.07,188.26Zm-8.76-4.53c-2.73.47-5.42,1.26-8.16,1.7-4,.66-8,1.67-12,2.37-3.35.58-6.61,1.58-10,2.15a65.83,65.83,0,0,1-8.41,1c-2,.07-4.07.2-6.1.21-2.91,0-5.83-.1-8.74-.15l-1.11-.06c2.86-.4,5.61-.8,8.37-1.15,1.93-.24,3.86-.5,5.8-.6a85.25,85.25,0,0,0,16.2-2.54c4.34-1,8.64-2.24,13-3.15A141.21,141.21,0,0,1,235.86,181c.74-.08,1.5-.06,2.25-.08l6.75-.24a1.57,1.57,0,0,1,.48,0C241,181.8,236.71,183,232.31,183.73ZM243,188.48c.63-.6,1.27-1.19,1.88-1.8.33-.32.62-.69.93-1a11.89,11.89,0,0,0,1.18-.76c2.64-2.15,5.2-4.4,7.9-6.47,4.49-3.43,9.15-6.64,13.94-9.67,4.29-2.71,8.45-5.64,12.67-8.46,2.43-1.62,4.87-3.21,7.32-4.8a8.13,8.13,0,0,1,1.23-.57c-.69.58-1.37,1.18-2.08,1.73-6.28,4.89-12.6,9.71-19.14,14.25-1.81,1.26-3.58,2.58-5.33,3.93-4,3.1-8.41,5.7-12.68,8.46-1.93,1.24-3.81,2.56-5.72,3.83C244.43,187.58,243.72,188,243,188.48Zm7-10a7,7,0,0,1,.58-.66c2.56-2.43,5.1-4.9,7.72-7.27a42.06,42.06,0,0,1,4.27-3.36c2.83-2,5.66-3.93,8.61-5.7a92,92,0,0,1,12.07-6.07c2.08-.86,4.09-1.9,6.13-2.85.38-.18.77-.34,1.15-.51-6.75,4.23-13.56,8.34-20.12,12.83a168.8,168.8,0,0,0-18.74,14.5Zm44.84-26.56h0c-.28.34-.55.69-.84,1a111.21,111.21,0,0,1-10.59,10q-6.41,5.49-13.11,10.57a109.87,109.87,0,0,1-13.4,8.3c-2,1.1-4,2.25-6,3.36-1.42.79-2.86,1.56-4.29,2.33l-.57.22-.51.24a.36.36,0,0,0,0-.23.89.89,0,0,1-.08-.17s.05-.05.07-.08l.28-.27.53-.26a3.9,3.9,0,0,1,.62-.66c.64-.47,1.28-.94,2-1.35,6.68-4,13-8.41,19.32-13,7.35-5.35,14.67-10.72,21.78-16.39.32-.25.58-.72,1.12-.45a7,7,0,0,0,.84-.59c.59-.57,1.14-1.21,1.74-1.77a12.11,12.11,0,0,1,1.15-.84Zm-.08-1.26c-1.69,1.23-3.34,2.51-5.07,3.68-5,3.37-10.07,6.7-15.11,10-2.35,1.56-4.69,3.14-7.08,4.64-4.43,2.76-8.63,5.83-12.82,8.93l-.32.21a.29.29,0,0,0-.15-.27l0,0a188.52,188.52,0,0,1,24-17.41c4.94-3.09,10-6,14.95-9A15.37,15.37,0,0,1,294.83,150.68Zm-46.21,27.2A120,120,0,0,1,259.81,167a79.65,79.65,0,0,1,23.93-13.38q4-1.43,8-2.8a4.29,4.29,0,0,1,.73-.15,2,2,0,0,1-.39.27c-3.78,1.71-7.57,3.4-11.35,5.1a84.88,84.88,0,0,0-15.25,8.49c-1,.73-2.07,1.36-3,2.12-1.78,1.39-3.58,2.76-5.23,4.28-2.69,2.48-5.28,5.08-8,7.71l-.94-.21A4.73,4.73,0,0,1,248.62,177.88Zm-69.14,9.35c4.47-1.67,9.09-2.86,13.67-4.18a119.14,119.14,0,0,1,18.13-3.78l1.7-.22a4,4,0,0,1,.56,0c-11.5,3.87-23.21,6.2-34.94,8.5Zm3.71,0c4.36-.93,8.73-1.83,13.07-2.82,5.68-1.31,11.26-3,16.82-4.71.76-.24,1.53-.44,2.3-.64a16.27,16.27,0,0,1,4.45-.57c2.07,0,4.15,0,6.23,0a1.26,1.26,0,0,1,.73.18c-.33.07-.66.16-1,.2a121,121,0,0,0-18.63,3.22c-3,.81-5.92,1.8-8.84,2.8a43.48,43.48,0,0,1-7.69,1.92c-2.88.43-5.76.86-8.65,1.25-1.39.19-2.78.3-4.18.44l0-.17C179.58,188,181.39,187.66,183.19,187.27Zm-9.32,2.19c2.8-.31,5.62-.56,8.42-.89,2.55-.3,5.08-.69,7.62-1a36.57,36.57,0,0,0,7.86-1.8l3.5-1.24a70.73,70.73,0,0,1,11.61-3.18c4.18-.72,8.36-1.45,12.56-2a49.85,49.85,0,0,1,11-.18c1.31.14,2.65.08,4,.15,2.38.12,4.76.27,7.15.42.21,0,.42.06.63.09v.28c-.24,0-.49,0-.73,0l-4.5,0c-.66,0-1.32.07-2,.06a58.37,58.37,0,0,0-11.72,1.08c-4,.76-8.09,1.4-12.07,2.45s-7.79,2-11.7,2.91a71.28,71.28,0,0,1-12.17,1.86c-3.48.22-6.94.63-10.39,1.18a48.33,48.33,0,0,1-7.79.62c-1.58,0-3.17.09-4.78.14A9.76,9.76,0,0,1,173.87,189.46Zm.53,1.64c-.19,0-.37,0-.56,0h-2.3V191h2.85Zm-3.52.62c3.45-.05,6.89-.11,10.34-.13,1.41,0,2.82.08,4.23.08,2.08,0,4.16,0,6.23-.08,1.59-.05,3.17-.17,4.76-.29a66.58,66.58,0,0,0,9.92-1.61c2-.46,4-.81,6-1.23,2.89-.6,5.78-1.24,8.68-1.85,3.84-.81,7.68-1.62,11.54-2.38,2.85-.57,5.72-1.08,8.52-1.9a5.36,5.36,0,0,1,1-.12c-.57.28-1.13.58-1.7.84a44.51,44.51,0,0,1-6.71,2.45c-2.34.64-4.63,1.48-7,2.09a60.86,60.86,0,0,0-6.07,1.88A26.89,26.89,0,0,1,215,191c-2.22.35-4.42.85-6.64,1.25a52.87,52.87,0,0,1-9,.59c-2.52,0-5-.05-7.55-.06-3.72,0-7.43.12-11.14-.05a64.9,64.9,0,0,1-9.64-.67c-.6-.12-1.23-.11-1.85-.28Zm63.23-5.52c-1.86.68-3.71,1.39-5.59,2a171.55,171.55,0,0,1-19.92,5.46,57.41,57.41,0,0,1-6.56.86,108.52,108.52,0,0,1-13.25.31,54,54,0,0,1-5.66-.57c-2.23-.3-4.45-.69-6.67-1a2.87,2.87,0,0,1-1-.36c1.69.1,3.38.22,5.07.29,1.23.05,2.47.12,3.7.05a70.45,70.45,0,0,1,7.69,0,112.48,112.48,0,0,0,12.18-.07,92.62,92.62,0,0,0,10.09-1.5,44.79,44.79,0,0,0,7.9-2.15c1.37-.48,2.8-.81,4.2-1.22l4.83-1.41c1-.3,1.92-.62,2.88-.94Zm-66.19,6.45a20.33,20.33,0,0,1,4.85.61,91.56,91.56,0,0,0,11.84,2.26,65,65,0,0,0,12.16.34A71.2,71.2,0,0,0,206,195c2.56-.44,5.1-1.05,7.62-1.72a226,226,0,0,0,22.79-7.41,48.25,48.25,0,0,1,5.69-1.78c-.4.46-.82.9-1.2,1.38-2.24,2.84-4.47,5.7-6.72,8.53-.83,1-1.69,2.05-2.54,3.06a3.37,3.37,0,0,1-.69.62c-1.33.87-2.65,1.76-4,2.59-5.65,3.49-11.48,6.63-17.35,9.71a263.5,263.5,0,0,1-25.21,11.46c-7.31,2.89-14.55,6-21.8,9-2,.85-4,1.81-6,2.77l-18.37,8.9a6,6,0,0,1-.81.29,10.94,10.94,0,0,1,1.16-1,46,46,0,0,0,6.79-5.9q4.62-4.59,8.76-9.6l5.39-6.54a37.12,37.12,0,0,0,4.19-6.28l5.81-11.17c.41-.78.88-1.53,1.32-2.3.15-.26.28-.53.4-.74-.14-.45-.4-.55-.75-.45a2.92,2.92,0,0,0-.36.17,77.59,77.59,0,0,0-12.65,8.7,48.88,48.88,0,0,0-7.7,8.55,85.5,85.5,0,0,0-7.42,13c-1.29,2.67-2.63,5.31-4,7.91a30.68,30.68,0,0,1-2.28,3.41,8.15,8.15,0,0,1-1,1,14.66,14.66,0,0,0-1.34,1.27,43.13,43.13,0,0,1-9.75,8.32c-1.4.92-2.87,1.74-4.28,2.64-.59.38-1.1.89-1.68,1.28a178,178,0,0,0-16.07,12.35,260.32,260.32,0,0,0-21.1,20.12c-4.61,4.9-8.89,10.07-13,15.38-1.35,1.75-2.73,3.47-4.11,5.2a4.1,4.1,0,0,1-.52.5c.21-.55.4-1.11.66-1.64.7-1.42,1.44-2.83,2.16-4.25a49,49,0,0,1,4.2-6.9,41.14,41.14,0,0,0,3.75-5.93A92.62,92.62,0,0,1,82,276.52c3.83-5.3,7.66-10.61,11.75-15.71,5-6.18,10-12.24,15.4-18.06q7-7.6,14.1-15.12c3.59-3.8,7.44-7.32,11.33-10.8,1.94-1.73,3.82-3.55,5.81-5.23q5-4.18,10.05-8.23c4-3.22,8.16-6.35,12.23-9.54a4,4,0,0,1,2.79-1C166.25,192.85,167.09,192.62,167.92,192.65Zm112.32-48.17a91.49,91.49,0,0,1-14.77,5.45,108.34,108.34,0,0,1-13.94,2.52c-4.39.48-8.77,1.06-13.17,1.46-3,.28-6,.32-9,.38a20.1,20.1,0,0,1,4.12-.91c3.57-.6,7.15-1.16,10.72-1.72,1.09-.17,2.19-.29,3.29-.42,2.67-.3,5.35-.57,8-.91a52.88,52.88,0,0,0,6.16-.92c4.29-1,8.54-2.21,12.8-3.37,1.75-.48,3.47-1,5.2-1.57a8.64,8.64,0,0,1,.85-.19A1.79,1.79,0,0,1,280.24,144.48Zm-43,7.56,1-.08-1,.28Zm51.09-11.83a73.71,73.71,0,0,1-14.85,5.53c-4,1.1-8.09,2.15-12.17,3.08-2.15.48-4.36.64-6.54.94-1.62.23-3.23.46-4.85.66-1.32.15-2.64.23-4,.4-1.53.2-3,.47-4.57.69-.52.08-1.05.11-1.58.16,1-.28,2-.58,3-.81,3.83-.88,7.65-1.79,11.5-2.57,5.19-1.06,10.36-2.25,15.52-3.42,3.8-.86,7.52-1.94,11.25-3.06,2.66-.8,5.34-1.52,8-2.28a2,2,0,0,1,.35,0C289.16,139.74,288.78,140,288.37,140.21Zm5.78-2.92q-3.34,1.26-6.77,2.3c-3.46,1-6.93,2.07-10.43,3-4,1.06-8.05,2-12.09,3-4.56,1-9.14,2-13.71,3-5,1.09-10,2.2-15,3.26-3.93.83-7.87,1.6-11.8,2.4a6.7,6.7,0,0,1-2.75,0c1.3-.24,2.6-.42,3.88-.73,2.18-.53,4.36-1.1,6.52-1.73,5.72-1.65,11.44-3.34,17.15-5,2.76-.8,5.49-1.69,8.27-2.39,6.89-1.73,13.79-3.44,20.71-5,6.19-1.42,12.43-2.65,18.65-4a6.53,6.53,0,0,1,1-.08A11.43,11.43,0,0,1,294.15,137.29Zm-.16-1.82c-4.76,1-9.54,1.83-14.27,2.94-8.29,1.94-16.59,3.9-24.82,6.12-7.67,2.07-15.25,4.47-22.86,6.78a86.83,86.83,0,0,1-10.7,2.46c-1.31.21-2.61.46-3.91.69a1.11,1.11,0,0,1-.79-.12l1.42-.63a87.69,87.69,0,0,1,13.6-4.4,11.06,11.06,0,0,0,1.45-.55c-1,.21-2.07.39-3.1.63a77.73,77.73,0,0,0-9.3,2.81,5,5,0,0,1,.86-.67c1.42-.72,2.82-1.48,4.29-2.07,5.32-2.14,10.62-4.35,16.12-6,4.64-1.41,9.31-2.75,14-4,2.81-.73,5.7-1.18,8.56-1.74,3.11-.62,6.23-1.24,9.35-1.81,1.95-.35,3.92-.61,5.88-.9a1,1,0,0,1,.67.14c-1.56.32-3.14.58-4.69,1-4.28,1.06-8.55,2.17-12.82,3.27-4.62,1.19-9.14,2.68-13.66,4.2a8.62,8.62,0,0,0-.8.41,17.83,17.83,0,0,0,1.79-.4c7.77-2.55,15.66-4.65,23.61-6.53,3.91-.93,7.89-1.55,11.85-2.22a31.2,31.2,0,0,1,4.23-.28c2.64-.07,5.29-.1,8,.06C296.61,134.91,295.3,135.2,294,135.47Zm-45.05.66a57.32,57.32,0,0,1,13.35-3.78,84.71,84.71,0,0,1,12.92-1.11c2.07,0,4.15,0,6.22,0a5.69,5.69,0,0,1,1.29.16c-2.65.14-5.29.31-7.94.41A99,99,0,0,0,262.53,133l-1.45.25a.15.15,0,0,0-.15-.06,93.24,93.24,0,0,0-13.11,3.62l-.12,0A12.67,12.67,0,0,1,248.94,136.13Zm-5.31,2.6c1.56-.6,3.16-1.09,4.74-1.65.22-.08.43-.17.64-.27,3.16-1,6.35-1.92,9.57-2.72,1.35-.27,2.71-.48,4.08-.68,2.89-.42,5.78-.78,8.69-.94l1.19-.08,9.52-.49c.53,0,1.06,0,1.59-.05,2-.07,3.89-.19,5.83-.19a29.65,29.65,0,0,1,4.09.32c-2.53.1-5.06.22-7.59.28a101.23,101.23,0,0,0-10.15.92c-2.37.29-4.74.56-7.1.92-3.58.54-7.15,1.09-10.72,1.73a74.13,74.13,0,0,0-9.43,2.08,128.37,128.37,0,0,0-12.49,4.39,8.52,8.52,0,0,1-1,.33A66.57,66.57,0,0,1,243.63,138.73Zm-8.49,4.58A94.93,94.93,0,0,1,246.82,139a82.2,82.2,0,0,1,11.47-2.66c3.57-.62,7.13-1.26,10.72-1.76,4.06-.57,8.15-1,12.23-1.48,3.16-.37,6.34-.49,9.52-.55,2.16,0,4.32-.14,6.49-.19a29.34,29.34,0,0,1,4.18.44l.05.34a5.57,5.57,0,0,1-1,.2c-3.76.12-7.51.15-11.26.35-2.69.15-5.37.47-8,.81s-5.41.75-8.11,1.21c-4.17.71-8.33,1.53-12.51,2.24-5.2.89-10.18,2.6-15.25,4a151.68,151.68,0,0,0-14.5,5.06c-1.65.63-3.29,1.28-4.94,1.93a73.77,73.77,0,0,0-8.46,4.4c-.69.38-1.42.7-2.14,1-.39.18-.8.29-1.43.52a3.68,3.68,0,0,1,1.49-1.36C221.77,149.76,228.43,146.49,235.14,143.31Zm33.34-34.55a61.85,61.85,0,0,1,18-8.12,4.67,4.67,0,0,1,.65,0c-.56.23-.86.38-1.18.49a129.84,129.84,0,0,0-17.65,8.13,5.46,5.46,0,0,1-.67.26A7.24,7.24,0,0,1,268.48,108.76Zm.58.64a99.73,99.73,0,0,1,25.78-10.54c2-.48,4.09-.66,6.15-1a16.57,16.57,0,0,1,3.32-.18l-1,.35c-2.43.79-4.88,1.53-7.29,2.39-3.07,1.1-6.12,2.28-9.17,3.45-1.07.41-2.12.88-3.16,1.36a4,4,0,0,0-.72.53c.33-.09.68-.14,1-.26,1.92-.77,3.83-1.58,5.76-2.32,2.75-1,5.51-2.11,8.3-3.07,2.12-.73,4.29-1.32,6.44-2a3.57,3.57,0,0,1,.74-.09,10.56,10.56,0,0,1-1,.56c-5.41,2.51-10.82,5-16.22,7.52-1.64.77-3.21,1.67-4.81,2.51-3.84,2-7.69,4-11.52,6q-7,3.66-13.93,7.36a75,75,0,0,1-7.44,3.47c-1.47.58-2.92,1.24-4.46,1.78a5.79,5.79,0,0,1,.61-.5l11.13-6.94c1.8-1.12,3.6-2.24,5.38-3.38a4.66,4.66,0,0,0,.65-.61,10.91,10.91,0,0,0-1.3.58l-15.1,9.24a4.56,4.56,0,0,1-.55.24,10.26,10.26,0,0,1,.94-1A141.43,141.43,0,0,1,269.06,109.4Zm31.35-8.34a31.81,31.81,0,0,1-5.24,3.63c-5.55,3-11.09,6-16.67,9-2.42,1.27-4.89,2.45-7.39,3.54-3.52,1.53-7.09,3-10.64,4.39a9.2,9.2,0,0,1-1.3.35q9.09-5.07,18.41-9.71c1.5-.74,3-1.54,4.44-2.36,5.15-2.89,10.53-5.34,15.91-7.78C298.74,101.71,299.58,101.4,300.41,101.06ZM249.82,55.92a1.7,1.7,0,0,1,.26-.9c.08.27.17.54.23.82.76,3.9,1.49,7.8,2.29,11.69a30.45,30.45,0,0,1,1,5.19c0,.15.15.3.22.46V72a12.9,12.9,0,0,1,1,3.77,59.4,59.4,0,0,1,.89,11.46,28.76,28.76,0,0,1-.57,5.78c-.4,1.9-.75,3.81-1.15,5.71a31.39,31.39,0,0,1-2,5.9,3.24,3.24,0,0,1-.31.41c.33-1.94.64-3.72.94-5.49q.66-4,1.3-8c.06-.4.1-.79.12-1.19l.3-8.86c0-.62.08-1.24.15-1.85a14.29,14.29,0,0,0-.3-4.47c0-.07-.11-.13-.16-.2,0,.58.09,1.15.12,1.72,0,.84.09,1.67.07,2.51,0,1.06-.16,2.11-.21,3.17-.11,2.47-.16,4.94-.32,7.41-.1,1.5-.35,3-.55,4.47a.74.74,0,0,1-.17.31c.15-3.11.29-6.23.43-9.34a32.87,32.87,0,0,0-.55-8.57c-.31-1.41-.33-2.89-.58-4.32-.55-3-1.12-6.08-1.75-9.1A27.56,27.56,0,0,1,249.82,55.92Zm-.28,5.25c.51,2.55,1.05,5.09,1.51,7.65.41,2.3.71,4.61,1.07,6.92.19,1.18.42,2.35.58,3.53a46.3,46.3,0,0,1,.15,7.54c0,2.29-.25,4.58-.37,6.87a33.76,33.76,0,0,1-1.56,8c-.64,2.07-1.27,4.13-1.93,6.19a31.36,31.36,0,0,1-2.29,5.47c.51-2.13,1-3.95,1.38-5.8a120.57,120.57,0,0,0,1.95-14,23.62,23.62,0,0,0,0-2.38c-.05-3.18-.05-6.36-.18-9.54s-.38-6.52-.34-9.78a14.56,14.56,0,0,0-.26-2.37A22.86,22.86,0,0,1,249.54,61.17Zm-.3-3.2c-.12,1.4-.21,2.8-.35,4.2a30.93,30.93,0,0,0,0,7.26c.18,1.4.24,2.81.31,4.22.11,2.16.18,4.32.27,6.48,0,.57.05,1.15.05,1.72,0,3.62,0,7.25,0,10.87a47.12,47.12,0,0,1-.85,7.76,100.48,100.48,0,0,1-1.85,9.88,55.53,55.53,0,0,1-5.17,13.15,1.06,1.06,0,0,1-.17.2,1.8,1.8,0,0,1,.09-1.27c.93-3.13,1.89-6.25,2.8-9.39a79.93,79.93,0,0,0,2.37-9.5c.16-1,.31-2,.37-3,.22-3.71.46-7.41.57-11.12.06-2.2-.1-4.4-.18-6.61-.08-2-.18-4.06-.28-6.09-.07-1.32-.18-2.64-.27-4a31.49,31.49,0,0,1,.51-7c.39-2.44.86-4.86,1.3-7.29A4.74,4.74,0,0,1,249,58Zm-7.39,60.61-.27,1.88A1.82,1.82,0,0,1,241.85,118.58Zm3.4-39.72a19.77,19.77,0,0,1,.22-5.8c.37-2.26.76-4.52,1.13-6.78v0l.48-1.55a4.29,4.29,0,0,1-.13,1c-.07.39-.08.79-.15,1.18a36,36,0,0,0-.08,9c0,.44.06.88.09,1.32.15,3,.36,6.08.44,9.13.05,1.76-.1,3.53-.19,5.29-.12,2.38-.34,4.76-.4,7.14a40.45,40.45,0,0,1-1.51,9.66c-.58,2.13-1.19,4.25-1.79,6.37a1.06,1.06,0,0,1-.46.67,17.8,17.8,0,0,1,.19-1.79A46.78,46.78,0,0,0,244,106c.2-3.66.51-7.31.7-11,.16-2.82.21-5.64.33-8.47,0-1.23.15-2.46.19-3.7A24.92,24.92,0,0,0,245.25,78.86Zm-6.34,11.67c-.19,1.62-.23,3.25-.31,4.88,0,.8,0,1.59,0,2.39a60.42,60.42,0,0,1-.19-13.17,82.87,82.87,0,0,1,5.41-20.71c.41-1.07,1-2.08,1.5-3.11-.13.52-.24,1-.42,1.55a106.15,106.15,0,0,0-4.2,15.44c-.31,1.56-.4,3.16-.62,4.73C239.67,85.2,239.23,87.86,238.91,90.53Zm.72-1.83c.48-3.06.77-6.14,1.21-9.2.26-1.78.61-3.56,1-5.32a109.21,109.21,0,0,1,4.49-14.83c.68-1.72,1.4-3.43,2.13-5.2a3.05,3.05,0,0,1,.06,2.64l-1.13,3.39.27,0-.27.77c-.19.92-.4,1.83-.58,2.76-.09.47-.14.94-.2,1.42l-.07.21a5.25,5.25,0,0,0-.44,1.48,1.09,1.09,0,0,0-.05.17.16.16,0,0,0,0,.1c-.07.43-.12.87-.2,1.29-.38,1.91-.64,3.84-1,5.75a20.56,20.56,0,0,0-.08,5c.07,1,0,2,0,3,0,1.67-.11,3.35-.19,5q-.14,3-.31,6-.33,5.1-.68,10.18c-.16,2.43-.33,4.85-.58,7.27a29,29,0,0,1-.61-6q-.3-6.23-.51-12.45c-.07-2.43-.18-4.86,0-7.29a65.85,65.85,0,0,1,.88-6.69A78.66,78.66,0,0,1,245,68.38a5,5,0,0,0,.09-.79,9.62,9.62,0,0,0-.53,1.19,80.36,80.36,0,0,0-2.41,11.39c-.28,1.87-.5,3.76-.68,5.65a28,28,0,0,0-.05,3c0,1.24.13,2.47.19,3.71.15,2.77.31,5.55.45,8.33,0,1,.1,1.94.08,2.91a54.72,54.72,0,0,0,.41,7,12.79,12.79,0,0,1-1.11,6.46c0-.32,0-.65-.06-1-.33-3.56-.63-7.13-1-10.68-.12-1.13-.57-2.23-.75-3.36-.23-1.57-.4-3.15-.5-4.73A40.91,40.91,0,0,1,239.63,88.7Zm-.4,15.14a12.38,12.38,0,0,1,.87,5.45Zm.89,20.78c.19-3.44.38-6.73.56-10h0c0,1.63.08,3.26.11,4.89,0,.66,0,1.32,0,2A5.58,5.58,0,0,1,240.12,124.62Zm2.55-1.39c1.84-3.91,3.69-7.83,5.47-11.77a39.43,39.43,0,0,0,1.48-4.11c.79-2.43,1.52-4.89,2.27-7.34a1.33,1.33,0,0,1,.19-.42c-1,9.9-5.4,18.42-10.64,26.61l-.23-.15C241.7,125.11,242.22,124.19,242.67,123.23Zm-.8,5.46q2.79-2.34,5.61-4.63a1.33,1.33,0,0,1,.42-.19c-.71.69-1.41,1.39-2.13,2.07a28.37,28.37,0,0,1-2.13,2,24.18,24.18,0,0,1-2.27,1.44A3.08,3.08,0,0,1,241.87,128.69Zm63.51-29.53a44.67,44.67,0,0,1-10.06,7.72c-3.5,2-7,4-10.52,5.89-2.13,1.16-4.33,2.2-6.53,3.24-2,.93-4,1.78-6,2.68a68.51,68.51,0,0,1-7.29,2.81c-.76.24-1.51.52-2.25.8-4.65,1.81-9.29,3.64-14,5.42-2.14.82-4.31,1.55-6.46,2.32l-.09-.26c2-.92,4.08-1.88,6.16-2.73,5.68-2.32,11.38-4.6,17.08-6.88a166.92,166.92,0,0,0,17-8c4.23-2.29,8.48-4.55,12.72-6.84a24.7,24.7,0,0,0,2.26-1.37c2.08-1.42,4.12-2.9,6.19-4.33a7.12,7.12,0,0,1,2.2-1A5.56,5.56,0,0,1,305.38,99.16Z" fill="#2c3d36"/></g><g id="change1_3"><path d="M209.47,120.41l0,0v0Z" fill="#2c3d36"/></g><g id="change1_4"><path d="M164.14,176.64v.07s0,0,0-.06Z" fill="#2c3d36"/></g><g id="change1_5"><path d="M177.06,247.14a207.13,207.13,0,0,0-28.3-3.47c-2.64-.13-5.29-.22-7.93-.28-.2,0-.21.34,0,.35q5.4.24,10.8.71a1,1,0,0,0-.25.06h.94q8.4.72,16.76,1.86c2.65.35,5.29.75,7.93,1.17C177.26,247.59,177.32,247.19,177.06,247.14Z" fill="#2c3d36"/></g><g id="change1_6"><path d="M160.16,189.87l-.28.56Z" fill="#2c3d36"/></g><g id="change1_7"><path d="M200,138c.13-1.22.22-2.45.32-3.68,0-.12-.19-.15-.19,0-.08,1.19-.2,2.38-.36,3.56a3.7,3.7,0,0,0-.07.57c-.22,1.58-.48,3.15-.79,4.71-.11.61-.24,1.22-.38,1.83-.05.24-.1.49-.16.74v0c-.6,2.48-1.34,4.92-2.13,7.35a3.84,3.84,0,0,0-.11.46q-.51,1.5-1.08,3c-.09.22.25.37.34.15A75.16,75.16,0,0,0,199.41,142a7.1,7.1,0,0,0,.27-1.78c0-.27.09-.54.12-.81,0,0,0-.08,0-.13A2.79,2.79,0,0,0,200,138Z" fill="#2c3d36"/></g><g id="change1_8"><path d="M203.7,123.17q-.52-3.65-.92-7.31v-.09h0c-.11-1-.21-2-.3-3a99,99,0,0,1-.51-10.33c0-1.14.09-2.29.22-3.43v0h.08l0-.31c.09-.73.2-1.45.35-2.17,0-.13-.18-.16-.21,0a34.76,34.76,0,0,0-.71,8h0v3.77h.11v-1.14c.05,1,.1,1.9.17,2.85h-.07l.07,1H202c.16,2.13.35,4.26.59,6.38s.47,4,.77,5.93a.2.2,0,0,0,.08.13c0,1.4-.06,2.81-.19,4.2,0,.17.25.21.26,0a29.79,29.79,0,0,0,.11-4.22A.16.16,0,0,0,203.7,123.17Z" fill="#2c3d36"/></g><g id="change1_9"><path d="M204,95.78V94.62h.06v1.15Z" fill="#2c3d36"/></g><g id="change1_10"><path d="M208.17,110.72c-.55-2.06-1.27-4-2-6a25.35,25.35,0,0,1-1.59-6.36,54.32,54.32,0,0,1,0-7.44c0-.15-.21-.18-.22,0a58.29,58.29,0,0,0-.15,6.47,22.71,22.71,0,0,0,1.21,6.22l-.06,0,.14.22c.09.26.19.52.28.77l.06.19c.09.26.17.53.26.8l0,0v-.06l-.1-.3.15.4,0,0h0l0,0c.14.39.28.78.43,1.17v0h0v.06l.28.77.26.79.19.55c0,.15.09.3.14.44l.17.6c.35,1.19.64,2.4.89,3.61,0,.13,0,.26,0,.41a.47.47,0,0,0,0-.09c.09.45.17.91.25,1.37a1.34,1.34,0,0,0,.14,1v-.22s0,0,0,.07a2.89,2.89,0,0,0,0,.29.13.13,0,0,1,0,0c0,.67-.15,1.37.25,2l0,.27a3.09,3.09,0,0,0,.11,1.42c.08,1.14.12,2.29.13,3.44,0,.23.36.19.36,0A48.26,48.26,0,0,0,208.17,110.72Z" fill="#2c3d36"/></g><g id="change1_11"><path d="M206.54 106.82L206.54 106.82 206.54 106.82 206.54 106.82z" fill="#2c3d36"/></g><g id="change1_12"><path d="M208.94,116.38v.06s0,0,0,0a.09.09,0,0,0,0,0S208.94,116.4,208.94,116.38Z" fill="#2c3d36"/></g><g id="change1_13"><path d="M182.7,279.87a64.27,64.27,0,0,0-13.2-11.27.77.77,0,0,0-.21-.14l-.57-.37a.59.59,0,0,0-.29-.18l-.43-.27a.74.74,0,0,0-.45-.28l-.42-.26a1.62,1.62,0,0,0-.83-.5l-.58-.34a2.86,2.86,0,0,0-1.13-.66l-.73-.41a3,3,0,0,0-1.25-.69l-.39-.21a.24.24,0,0,0-.06-.08c-1.6-.81-3.2-1.63-4.81-2.43l-.15,0-.6-.28a1.73,1.73,0,0,0-.34-.21l-1.11-.47c-2.43-1.11-4.88-2.17-7.32-3.18l-3.47-1.43a59.52,59.52,0,0,0-13.48-4c-.2,0-.24.27,0,.32a120,120,0,0,1,13.24,4.12l2.35,1c3.35,1.37,6.68,2.8,10,4.35A99.26,99.26,0,0,1,172,271l2.06,1.63a1.39,1.39,0,0,0,.36.2l.62.49a2.31,2.31,0,0,0,.53.55,14.86,14.86,0,0,0,2,1.61l.72.63a8.84,8.84,0,0,0,1.33,1.26c.93.9,1.85,1.82,2.72,2.77C182.55,280.29,182.88,280.07,182.7,279.87Z" fill="#2c3d36"/></g><g id="change1_14"><path d="M258.55,140.66c-10,2.74-19.94,5.86-29.77,9.18-.1,0,0,.18.06.15l4.43-1.33-.19.12a5.4,5.4,0,0,0,.91-.09c1.3-.36,2.6-.74,3.89-1.13a5.46,5.46,0,0,0,.81-.39c-.18,0-.36,0-.54,0l2.16-.64-.86.36a10.8,10.8,0,0,0,1.16-.21c1.34-.42,2.68-.86,4-1.31a3.59,3.59,0,0,0,.62-.31l2.73-.82a.66.66,0,0,0,.36-.11q5.17-1.54,10.36-3.12C259,141,258.8,140.59,258.55,140.66Z" fill="#2c3d36"/></g><g id="change1_15"><path d="M238.66,147.19l.82-.28Z" fill="#2c3d36"/></g><g id="change1_16"><path d="M165.59,180.52c-.63,1.32-1.17,2.69-1.73,4-.27.65-.54,1.3-.87,1.92s-.73,1.27-1.12,1.89c-.15.24.19.53.35.28.37-.58.73-1.16,1.06-1.77a18.35,18.35,0,0,0,.89-2c.55-1.41,1.12-2.81,1.6-4.24A.1.1,0,0,0,165.59,180.52Z" fill="#2c3d36"/></g><g id="change1_17"><path d="M163.06,186.45c.1-.18.19-.37.29-.56C163.25,186.08,163.16,186.27,163.06,186.45Z" fill="#2c3d36"/></g><g id="change1_18"><path d="M171.91,257.77c-1.51-.41-3-.89-4.47-1.41a5.16,5.16,0,0,0-.66-.23l-2-.74-.07,0-1.47-.55a3.11,3.11,0,0,0-1.18-.43l-.5-.18a4,4,0,0,0-1.85-.66,54.07,54.07,0,0,0-6.27-1.79c-.19,0-.23.25,0,.3,6.31,1.55,12.17,4.52,18.47,6.11C172.1,258.24,172.15,257.84,171.91,257.77Z" fill="#2c3d36"/></g><g id="change1_19"><path d="M297.34,99.93c-5.1,1.76-10.12,3.82-15,6.08a7.22,7.22,0,0,0-1,.38c-.53.26-1,.54-1.57.83l-2.09,1a1.6,1.6,0,0,0-.43.11c-1.91.94-3.82,1.9-5.73,2.86a1.18,1.18,0,0,0-.32.31l-.86.46a6.41,6.41,0,0,0-2.4,1.28c-.24.12-.47.25-.7.38a11.31,11.31,0,0,0-2.46,1.35c-1.6.9-3.21,1.8-4.8,2.72-.2.12,0,.42.22.3,1.32-.77,2.66-1.52,4-2.27l.19-.08.31-.19a257.38,257.38,0,0,1,24.44-11.74c2.79-1.17,5.6-2.27,8.4-3.4A.21.21,0,0,0,297.34,99.93Z" fill="#2c3d36"/></g><g id="change1_20"><path d="M278.47,107.91l-.55.28Z" fill="#2c3d36"/></g><g id="change1_21"><path d="M271.05,111.63l-.56.28Z" fill="#2c3d36"/></g><g id="change1_22"><path d="M221.75,258c-3.53-1.81-7.18-3.33-10.86-4.79a2.14,2.14,0,0,0-.38-.23c-1.37-.61-2.74-1.23-4.14-1.76q-7.78-3-15.6-5.84a36.76,36.76,0,0,0-7.15-1.89c-2.3-.37-4.62-.7-6.9-1.18a34.83,34.83,0,0,0-7.48-.81c-.35,0-.7,0-1.06-.06-2.28-.13-4.57-.31-6.86-.38-2-.06-4,0-6,0a16.3,16.3,0,0,0,1.68.27c1.28.06,2.56,0,3.84.1,2.64.14,5.29.34,7.93.48a45.85,45.85,0,0,1,6.71.7c2.25.45,4.52.81,6.79,1.18a41,41,0,0,1,6.84,1.54l4.5,1.57q8.08,2.81,16,6.08a.14.14,0,0,0,.1.13c.95.38,1.89.78,2.83,1.19l.36.16c2.89,1.3,5.72,2.75,8.52,4.23C221.88,258.94,222.19,258.23,221.75,258Z" fill="#2c3d36"/></g><g id="change1_23"><path d="M217.73,256.47l-.56-.28Z" fill="#2c3d36"/></g><g id="change1_24"><path d="M214.81,255.15l-.56-.29Z" fill="#2c3d36"/></g><g id="change1_25"><path d="M134.15,257.78l.29.29Z" fill="#2c3d36"/></g><g id="change1_26"><path d="M135.47,258.84l.29.29Z" fill="#2c3d36"/></g><g id="change1_27"><path d="M200,298.55l-1.44-.7c-1.35-.91-2.72-1.8-4.08-2.69a.22.22,0,0,0-.19,0c-.57-.39-1.14-.79-1.69-1.2a.22.22,0,0,0-.27.34c1.17.94,2.38,1.84,3.61,2.71l-.26-.15c-.23-.14-.5.19-.27.34l1.08.67h0l.23.11c.91.57,1.83,1.11,2.77,1.62a.28.28,0,0,0,.39-.32A.37.37,0,0,0,200,298.55Z" fill="#2c3d36"/></g><g id="change1_28"><path d="M133.17,205.58c-.09.59-.2,1.18-.33,1.76v-.23c-.37.29-.31.7-.28,1.09h.08c-.14.57-.29,1.15-.46,1.71-.05.15.17.25.22.1a22.74,22.74,0,0,0,.92-4.41A.08.08,0,0,0,133.17,205.58Z" fill="#2c3d36"/></g><g id="change1_29"><path d="M245.31,66.79l-.28.83Z" fill="#2c3d36"/></g><g id="change1_30"><path d="M246.1,64.14l-.27.82Z" fill="#2c3d36"/></g><g id="change1_31"><path d="M246.37,63.34c-.09.28-.19.55-.28.83C246.18,63.89,246.28,63.62,246.37,63.34Z" fill="#2c3d36"/></g><g id="change1_32"><path d="M246.64,62.55l-.28.82Z" fill="#2c3d36"/></g><g id="change1_33"><path d="M246.9,61.75c-.09.28-.19.55-.28.83C246.71,62.3,246.81,62,246.9,61.75Z" fill="#2c3d36"/></g><g id="change1_34"><path d="M247.17,61l-.28.83Z" fill="#2c3d36"/></g><g id="change1_35"><path d="M248.57,57.19c-.39,1.11-.76,2.22-1.14,3.32v-.35l-.28.82h.1c-.74,1.83-1.41,3.69-2.12,5.53a.11.11,0,0,0,.17.14,1,1,0,0,0,0,.17l0-.09c-.33,1-.67,2-1,3,0,.1.12.17.15.07q1.59-4.36,3.11-8.76c.25-.64.49-1.28.71-1.93a.13.13,0,0,0,0-.12c.19-.56.4-1.13.59-1.7C249,57.12,248.64,57,248.57,57.19Z" fill="#2c3d36"/></g><g id="change1_36"><path d="M155.08,270.88c-3.79-2.56-7.75-4.89-11.63-7.3-2.72-1.69-5.44-3.39-8.18-5.06a1.36,1.36,0,0,0-.72-.43l-.48-.29h.1l-.55-.29v0l-1.41-.84c6,2,10.82,6.13,16.44,8.82.2.09.32-.2.14-.31-4.77-2.76-9.32-6.17-14.47-8.19l-.86-.43a2.6,2.6,0,0,0-.64-.13v0c-.33-.11-.66-.22-1-.31s-.32.3-.11.37h0a.18.18,0,0,0,0,.3c1.88,1.27,3.79,2.51,5.71,3.72a4.63,4.63,0,0,0,1.23.77l.86.54a2.87,2.87,0,0,0,.8.49l3,1.85c3.83,2.36,7.66,4.8,11.61,6.95C155.07,271.23,155.23,271,155.08,270.88Z" fill="#2c3d36"/></g><g id="change1_37"><path d="M273.16,87.22l-.55.82Z" fill="#2c3d36"/></g><g id="change1_38"><path d="M282.18,68.38l-.28.56Z" fill="#2c3d36"/></g><g id="change1_39"><path d="M281.39,70.24l-.29.56Z" fill="#2c3d36"/></g><g id="change1_40"><path d="M280.33,72.63c-.1.18-.19.37-.29.56C280.14,73,280.23,72.81,280.33,72.63Z" fill="#2c3d36"/></g><g id="change1_41"><path d="M280.06,73.16l-.28.56Z" fill="#2c3d36"/></g><g id="change1_42"><path d="M279.79,73.69c-.09.18-.18.37-.28.56C279.61,74.06,279.7,73.87,279.79,73.69Z" fill="#2c3d36"/></g><g id="change1_43"><path d="M279.53,74.22c-.1.18-.19.37-.28.56C279.34,74.59,279.43,74.4,279.53,74.22Z" fill="#2c3d36"/></g><g id="change1_44"><path d="M279.26,74.75l-.28.56Z" fill="#2c3d36"/></g><g id="change1_45"><path d="M279,75.28c-.1.18-.19.37-.28.56C278.81,75.65,278.9,75.46,279,75.28Z" fill="#2c3d36"/></g><g id="change1_46"><path d="M276.87,79.52c-.09.19-.18.37-.28.56C276.69,79.89,276.78,79.71,276.87,79.52Z" fill="#2c3d36"/></g><g id="change1_47"><path d="M276.61,80.05l-.28.56Z" fill="#2c3d36"/></g><g id="change1_48"><path d="M275.29,83l-.29.56Z" fill="#2c3d36"/></g><g id="change1_49"><path d="M275,83.5c-.09.19-.19.38-.28.56C274.83,83.88,274.93,83.69,275,83.5Z" fill="#2c3d36"/></g><g id="change1_50"><path d="M274.75,84c-.09.19-.18.38-.28.56C274.57,84.41,274.66,84.22,274.75,84Z" fill="#2c3d36"/></g><g id="change1_51"><path d="M274.49,84.56l-.28.56Z" fill="#2c3d36"/></g><g id="change1_52"><path d="M274.22,85.09c-.09.19-.18.38-.28.56C274,85.47,274.13,85.28,274.22,85.09Z" fill="#2c3d36"/></g><g id="change1_53"><path d="M274,85.63l-.28.55Z" fill="#2c3d36"/></g><g id="change1_54"><path d="M273.69,86.16c-.09.18-.18.37-.28.55C273.51,86.53,273.6,86.34,273.69,86.16Z" fill="#2c3d36"/></g><g id="change1_55"><path d="M273.43,86.69c-.1.18-.19.37-.28.56C273.24,87.06,273.33,86.87,273.43,86.69Z" fill="#2c3d36"/></g><g id="change1_56"><path d="M272.63,88l-.28.56Z" fill="#2c3d36"/></g><g id="change1_57"><path d="M282.73,66.55a20.78,20.78,0,0,1-.83,2.53,1,1,0,0,0,0-.17,1.78,1.78,0,0,0-.55,1.36l.09-.11c-.12.28-.25.56-.38.84,0-.08,0-.15,0-.23a3.43,3.43,0,0,0-.8,1.8c-.57,1.14-1.17,2.26-1.73,3.39l-2.91,5.75v0l-1.94,3.82-1.5,3h-.15v.29L271,91c-.09.18.2.31.29.12l1-2h.06V89l3.83-7.6c1.61-3.18,3.27-6.33,4.8-9.54a28.18,28.18,0,0,0,2-5.25C283,66.43,282.77,66.4,282.73,66.55Z" fill="#2c3d36"/></g><g id="change1_58"><path d="M243.73,194.12l-1.36.28Z" fill="#2c3d36"/></g><g id="change1_59"><path d="M263,189.86c-3.9,1-7.9,1.56-11.85,2.29a68.52,68.52,0,0,0-11.29,2.9.19.19,0,0,0,.14.35,88.53,88.53,0,0,1,11.72-2.72c3.83-.7,7.65-1.45,11.41-2.47C263.36,190.15,263.22,189.8,263,189.86Z" fill="#2c3d36"/></g><g id="change1_60"><path d="M157.79,277.84c-3.21-2.64-6.43-5.26-9.69-7.83s-6.61-5-9.92-7.52c-.11-.08-.24.08-.13.16,2.07,1.64,4.13,3.3,6.19,5a2.53,2.53,0,0,0,1.6,1.33l-.08-.1,2,1.6,9.79,7.69C157.74,278.28,158,278,157.79,277.84Z" fill="#2c3d36"/></g><g id="change1_61"><path d="M158,280.35c-2.58-2.46-5.32-4.72-8.13-6.91s-6-4.39-9.05-6.49c-.11-.08-.25.08-.13.17,2.93,2.27,5.81,4.58,8.79,6.8a104.68,104.68,0,0,1,8.32,6.67C158,280.73,158.17,280.49,158,280.35Z" fill="#2c3d36"/></g><g id="change1_62"><path d="M145.31,270.27l-.56-.29Z" fill="#2c3d36"/></g><g id="change1_63"><path d="M144.79,270h0Z" fill="#2c3d36"/></g><g id="change1_64"><path d="M145.58,270.54l-.29-.29Z" fill="#2c3d36"/></g><g id="change1_65"><path d="M144.91,229.37c-.58.89-1.18,1.77-1.78,2.65a.27.27,0,0,0-.08.07c-.57.82-1.14,1.65-1.7,2.48l-2.39,3.3a.2.2,0,0,0-.16.1,29,29,0,0,1-4.5,4.89c-.36.3.07.9.42.59a25.08,25.08,0,0,0,3.91-4.39.27.27,0,0,0,.32-.1c2.17-3.06,4.21-6.22,6.22-9.39C145.28,229.4,145,229.19,144.91,229.37Z" fill="#2c3d36"/></g><g id="change1_66"><path d="M249.53,136.58l.83-.28Z" fill="#2c3d36"/></g><g id="change1_67"><path d="M250.33,136.31l.82-.28Z" fill="#2c3d36"/></g><g id="change1_68"><path d="M251.12,136.05l.83-.28Z" fill="#2c3d36"/></g><g id="change1_69"><path d="M251.92,135.78l.82-.28Z" fill="#2c3d36"/></g><g id="change1_70"><path d="M249,185.63l-.82.55Z" fill="#2c3d36"/></g><g id="change1_71"><path d="M250.35,184.83l-.82.56Z" fill="#2c3d36"/></g><g id="change1_72"><path d="M251.68,184l-.82.55Z" fill="#2c3d36"/></g><g id="change1_73"><path d="M295,151.05c-11.42,11.83-25,21-38.74,29.89-3.2,2.06-6.5,4-9.72,6h-.13l-.53.26-.27.27v.06l-1.06.67c-.23.15,0,.47.24.34l1.35-.79h0l.31-.18c3-1.76,5.9-3.62,8.83-5.46,3.49-2.19,7-4.36,10.4-6.63q2.13-1.42,4.24-2.88c.78-.5,1.57-1,2.35-1.5a4.11,4.11,0,0,0,.73-.66l.33-.24a1.28,1.28,0,0,0,.45-.17c2.67-2,5.32-4,8-6.09a2.28,2.28,0,0,0,.37-.39l.85-.68a.57.57,0,0,0,.18-.12l.34-.31q1-.81,2-1.65a136.06,136.06,0,0,0,10.05-9.31C295.83,151.17,295.27,150.72,295,151.05Z" fill="#2c3d36"/></g><g id="change1_74"><path d="M248.23,186.16l-.56.29Z" fill="#2c3d36"/></g><g id="change1_75"><path d="M249.56,185.37l-.56.28Z" fill="#2c3d36"/></g><g id="change1_76"><path d="M250.89,184.57l-.56.28Z" fill="#2c3d36"/></g><g id="change1_77"><path d="M252.21,183.78l-.56.28Z" fill="#2c3d36"/></g><g id="change1_78"><path d="M257.52,180.33l-.56.28Z" fill="#2c3d36"/></g><g id="change1_79"><path d="M258.85,179.53l-.57.28Z" fill="#2c3d36"/></g><g id="change1_80"><path d="M260.17,178.74l-.56.28Z" fill="#2c3d36"/></g><g id="change1_81"><path d="M291.2,155.13l-.28.28Z" fill="#2c3d36"/></g><g id="change1_82"><path d="M290.94,155.39l-.29.29Z" fill="#2c3d36"/></g><g id="change1_83"><path d="M290.67,155.66l-.28.28Z" fill="#2c3d36"/></g><g id="change1_84"><path d="M290.41,155.92l-.29.29Z" fill="#2c3d36"/></g><g id="change1_85"><path d="M290.14,156.19l-.28.28Z" fill="#2c3d36"/></g><g id="change1_86"><path d="M168.63,201.58l-1.8,2.51a1.42,1.42,0,0,0-.52.71l-.2.29a1.53,1.53,0,0,0-.63.88l-.09.13a.89.89,0,0,0-.45.63c-.34.49-.69,1-1,1.46-.07.11.09.25.17.14,1.63-2.16,3.23-4.34,4.84-6.52C169.05,201.62,168.76,201.39,168.63,201.58Z" fill="#2c3d36"/></g><g id="change1_87"><path d="M167,204l.29-.29Z" fill="#2c3d36"/></g><g id="change1_88"><path d="M253.51,70.05c0-.11-.21-.06-.19,0,.2,1,.36,2.06.49,3.09,0,0,0,0,0,0a3.71,3.71,0,0,0,.2,1.75,58.82,58.82,0,0,1,.19,6.09c0,.15.26.16.27,0A35.49,35.49,0,0,0,253.51,70.05Z" fill="#2c3d36"/></g><g id="change1_89"><path d="M246.14,181.55c-.65.81-1.29,1.63-1.94,2.45a2.21,2.21,0,0,0-.63.79c-1.22,1.53-2.44,3.05-3.68,4.56-.15.18.13.4.28.22,2.19-2.5,4.38-5,6.45-7.64A.31.31,0,0,0,246.14,181.55Z" fill="#2c3d36"/></g><g id="change1_90"><path d="M245,183.27l.29-.29Z" fill="#2c3d36"/></g><g id="change1_91"><path d="M244.76,183.53l.29-.29Z" fill="#2c3d36"/></g><g id="change1_92"><path d="M244.49,183.8l.29-.29Z" fill="#2c3d36"/></g></svg>