<svg xmlns="http://www.w3.org/2000/svg" xmlns:xlink="http://www.w3.org/1999/xlink" preserveAspectRatio="xMidYMid meet" version="1.0" viewBox="-0.5 -0.2 500.5 500.2" zoomAndPan="magnify" style="fill: rgb(0, 0, 0);" original_string_length="5660"><g id="__id1_siz3xamo2p"><path d="M-0.3 0H500V500H-0.3z" style="fill: rgb(87, 91, 90);"/></g><path d="M500,264.5v22.3c-1.2,0.9-2.3,1.9-3.1,2.8c-3.3,3.4-6.1,9.3-10.9,10.8c-6.6,2.1-12.6-4.1-16.7-8.3 c-6.2-6.4-12.2-12.8-18.4-19.2c-5.2-5.5-10.5-11-14.8-17.2c-2.4-3.4-4.5-7.1-5.2-11.1c-0.7-4.1,0.3-8.6,3.3-11.4 c2.9-2.7,7.3-3.3,11.2-2.6c3.9,0.7,7.5,2.7,10.9,4.7c7.9,4.7,15.5,9.9,23.1,15.1C486.3,255.1,493.1,259.8,500,264.5z" style="fill: none;"/><g id="__id2_siz3xamo2p"><path d="M357.5,35c10.7,3.5,22.2,3.3,33.4,3.1c14.1-0.2,28.2-0.4,42.4-0.6c8.3-0.1,17.3-0.5,23.4-6.1 c7.2-6.5,7.7-18.1,3.6-27c-0.7-1.6-1.5-3-2.4-4.5h-30.4c3.5,3.9,5.5,9.5,3.7,14.3c-2.2,5.9-8.8,8.7-15,9.9 c-17,3.4-35.5-0.9-49.3-11.5c-4.7-3.6-8.9-8-12.3-12.8h-32.7c0.9,2.4,1.9,4.7,3.1,6.9C331.8,19.9,343.5,30.5,357.5,35z" style="fill: rgb(207, 207, 207);"/></g><g id="__id3_siz3xamo2p"><path d="M500,0v28.1c-6.2-9.2-12.2-18.6-17.9-28.1H500z" style="fill: rgb(207, 207, 207);"/></g><g id="__id4_siz3xamo2p"><path d="M448.1,70.8c18,1.4,35.5,6.7,51.9,14.4v19.9c-32.4-12-68.6-5-102.7,1.1c-34.8,6.2-72.8,10.6-103.4-6.9 c-23.2-13.2-38.7-37.7-45.2-63.7C245.7,24,244.5,12,244.4,0h40.8c2.2,11.2,6.5,22,12.8,31.6c12.6,19.4,32.8,33.6,55.3,38.8 C384.2,77.7,416.5,68.4,448.1,70.8z" style="fill: rgb(207, 207, 207);"/></g><g id="__id5_siz3xamo2p"><path d="M500,157.2v45c-12.1-6.4-24.7-11.5-38.2-14.4c-59.5-12.9-121,18.9-181.2,10.3c-55.2-7.9-101.7-50.6-122.6-102.3 C145.7,65.5,141.5,32.7,143.4,0h54.1c-4.5,27.2-3,55.3,4.6,81.8c7,24.2,19.5,47.6,39.8,62.4c29.3,21.4,69,21.3,104.8,15.4 c35.8-5.9,71.5-16.7,107.6-13.6C470,147.5,485.3,151.4,500,157.2z" style="fill: rgb(207, 207, 207);"/></g><g id="__id6_siz3xamo2p"><path d="M136.8,463.6c-11.6-6.1-26.2-4.5-37.8-10.8c-5.7-3.1-10.3-7.9-16.1-10.7c-10.9-5.1-24.6-1.7-33.5,6.5 c-8.9,8.2-13.5,20.2-15,32.2c-0.8,6.4-0.7,12.8-0.3,19.2h25.7c-0.4-1.9-0.6-3.8-0.6-5.7c-0.3-9.8,4.7-20.2,13.8-23.8 c7.7-3,16.3-0.7,24.2,1.6c8.5,2.5,17,5,25.5,7.5c4,1.2,8.3,2.5,10.9,5.9c3.1,4,2.7,10,0.4,14.5H152c1.1-3.4,1.5-7.1,1.3-10.7 C152.7,478.7,146.2,468.6,136.8,463.6z" style="fill: rgb(207, 207, 207);"/></g><g id="__id7_siz3xamo2p"><path d="M183.1,414.3c-12.8-3.7-26.5-5.4-37.8-12.4c-15.9-9.8-24.5-28.4-39.8-39.1c-20-14-48.6-11.3-68.8,2.4 c-18.5,12.6-30.5,32.9-37,54.3V500H9c-3.3-35.5,9.2-72.5,34.3-98c11.9-12.1,30.1-22,45.3-14.4c12.4,6.2,17.5,21.7,29.1,29.2 c10.3,6.7,23.5,5.8,35.8,5.8c12.3,0,26.2,2.1,33.3,12.1c6.6,9.3,4.9,22.3,0.3,32.7c-4.6,10.4-11.7,19.7-15.7,30.4 c-0.3,0.7-0.5,1.4-0.7,2.1h25.2c1.8-6,4.6-11.8,7.5-17.2c7.7-14.2,16.4-30.5,10.6-45.5C209.1,424.9,195.9,418,183.1,414.3z" style="fill: rgb(207, 207, 207);"/></g><g id="__id8_siz3xamo2p"><path d="M339.7,257c-26.9-1-53.5,4.7-80.2,7.6c-26.7,2.9-54.8,2.9-79.1-8.5c-24.4-11.5-42.4-33.3-65.9-46.5 c-25.1-14.1-56.1-17.4-83.6-8.9c-11.2,3.5-21.8,8.9-31.3,15.8V265c4.3-5.8,9.3-11.2,14.9-15.8c21.7-18.2,52-25.7,79.8-19.8 c57.8,12.3,95.4,76.2,154.1,83.4c21.4,2.6,42.9-2.9,64.4-4.5c21.5-1.6,45.5,1.7,59.9,17.8c15.6,17.4,14.8,44.3,7,66.4 c-7.8,22-21.4,41.6-29.5,63.5c-5.1,13.9-7.6,29.7-5,44h63.1c-2.9-15.3-2.3-31.6,0.3-47.1c4.7-28.3,15.2-55.4,19.7-83.8 s1.9-59.8-16.4-81.9C394.7,266.6,366.6,257.9,339.7,257z" style="fill: rgb(207, 207, 207);"/></g><g id="__id9_siz3xamo2p"><path d="M284.4,349c-17.3-0.8-34.6,3.4-51.9,1.9c-32.1-2.7-58.9-24.2-84.8-43.3c-25.9-19.1-56.3-37.5-88.1-32.7 c-23.6,3.5-44.1,19.9-56.2,40.5c-1.3,2.2-2.5,4.4-3.6,6.6v55.1c4.1-11.8,9.4-23,16.3-33.5c17.6-26.4,48.8-46.1,80.1-41 c25.4,4.2,45.4,23.1,64.1,40.9c18.7,17.7,39.7,36,65.3,38.3c11.9,1,23.9-1.6,35.8-0.4c11.9,1.2,24.7,7.7,27.4,19.4 c3.2,14.1-9.4,26.3-18.9,37.2C254.6,455.3,245,477.2,242,500h46.2c-1.7-22.5,3.4-45.6,15.1-64.9c5.8-9.6,13.2-18.4,18.4-28.3 c5.2-10,8.3-21.9,4.7-32.6C320.8,357.7,301.7,349.8,284.4,349z" style="fill: rgb(207, 207, 207);"/></g><g id="__id10_siz3xamo2p"><path d="M45,110.8c7.5,2.2,16.3,2,22.2-3.2c6.3-5.5,7.3-15.2,5-23.2c-2.3-8-7.2-15-11.6-22.1C48.9,43.3,41.1,22,37.6,0 H-0.3v3.4c6.9,21,18.2,40.5,33,56.9c3.8,4.2,7.8,8.3,10,13.4c2.2,5.2,2,11.8-2,15.7c-3.7,3.5-9.5,3.8-14.4,2.3 c-4.9-1.5-9.1-4.4-13.6-6.8c-4.1-2.2-8.5-3.9-13-5.2v14c8.3,1.2,16.5,3.6,24.1,7.1C30.9,104.2,37.5,108.5,45,110.8z" style="fill: rgb(207, 207, 207);"/></g><g id="__id11_siz3xamo2p"><path d="M93.9,164.7c9.7,4,18.9,9.3,29.1,11.8c10.2,2.4,22.1,1.3,29.4-6.1c8.1-8.2,8.2-21.7,4-32.5 c-4.3-10.7-12.1-19.6-18.8-29c-22.3-31.2-32.3-70.7-29-108.9H72c-1.3,39.1,13.9,78.9,42,106.3c6.6,6.4,13.9,12.3,18.3,20.3 c4.4,8,5.2,19-1.1,25.6c-5.5,5.8-14.8,6.5-22.5,4.1c-7.7-2.4-14.3-7.2-21.2-11.4c-26.1-15.8-57.9-21.6-88-16.9v41.5 C28.5,154.8,63.8,152.4,93.9,164.7z" style="fill: rgb(207, 207, 207);"/></g><g id="__id12_siz3xamo2p"><path d="M445.4,230.5c3.9,0.7,7.5,2.7,10.9,4.7c7.9,4.7,15.5,9.9,23.1,15.1c6.9,4.7,13.7,9.4,20.6,14.1v-23 c-4.6-1.7-9.2-3.4-13.6-5.4c-11.6-5.3-22-13.1-34.1-17c-12.1-4-27.1-3.1-35.2,6.8c-8.2,10-6,25.2,0.4,36.4 c6.4,11.2,16.2,20.1,23.4,30.9c4,6,7.2,12.6,11.3,18.5c4.1,6,9.4,11.4,16.2,14c9.8,3.7,21.5-0.2,28-8.3c1.4-1.7,2.4-3.7,3.6-5.5 v-25.1c-1.2,0.9-2.3,1.9-3.1,2.8c-3.3,3.4-6.1,9.3-10.9,10.8c-6.6,2.1-12.6-4.1-16.7-8.3c-6.2-6.4-12.2-12.8-18.4-19.2 c-5.2-5.5-10.5-11-14.8-17.2c-2.4-3.4-4.5-7.1-5.2-11.1c-0.7-4.1,0.3-8.6,3.3-11.4C437.1,230.4,441.5,229.8,445.4,230.5z" style="fill: rgb(207, 207, 207);"/></g><g id="__id13_siz3xamo2p"><path d="M322.3,229.3c-39.7,0.4-79.3-12.6-111.1-36.4c-6.3-4.7-12.5-9.9-20.1-11.7c-7.6-1.8-17.1,1.3-19.5,8.7 c-1.3,4.1-0.2,8.8,2.1,12.4c2.3,3.7,5.7,6.5,9.2,9.1c22.2,16.6,49.8,24.7,77.4,27.4c19.1,1.9,38.4,1.4,57.5,0.2 c4.5-0.3,20,1.2,21.6-5.1C341,227.9,326.1,229.3,322.3,229.3z" style="fill: rgb(207, 207, 207);"/></g><g id="__id14_siz3xamo2p"><path d="M500,401.7c-10,19.1-14.3,41.2-9.9,62.2c1.8,8.7,5.2,17.1,9.9,24.7V500h-32.4c-11.1-30.3-10.9-64.9,1.9-94.7 c7-16.2,17.5-30.7,30.5-42.6V401.7z" style="fill: rgb(207, 207, 207);"/></g></svg>